<?xml version="1.0" encoding="UTF-8"?>
<svg version="1.1" xmlns="http://www.w3.org/2000/svg" width="124" height="108">
<path d="M0 0 C0.80953125 -0.01417969 1.6190625 -0.02835937 2.453125 -0.04296875 C4.97621362 0.21019831 6.5305833 1.00920105 8.75 2.1875 C8.7593457 3.44409424 8.76869141 4.70068848 8.77832031 5.99536133 C8.81816132 10.65294991 8.88390343 15.30987383 8.95751953 19.96704102 C8.9857634 21.98355579 9.00696088 24.00018198 9.02099609 26.0168457 C9.04237846 28.9141559 9.08900366 31.81012172 9.140625 34.70703125 C9.14185364 35.61024612 9.14308228 36.513461 9.14434814 37.44404602 C9.13051651 42.32245857 9.13051651 42.32245857 11.65869141 46.27099609 C15.32697469 47.87860004 17.8729802 47.00042351 21.75 46.1875 C24.04216683 44.32960267 24.04216683 44.32960267 23.96118164 41.4128418 C23.94434326 40.24922119 23.92750488 39.08560059 23.91015625 37.88671875 C23.89919922 36.59830078 23.88824219 35.30988281 23.87695312 33.98242188 C23.85623558 32.61326943 23.83474773 31.24412843 23.8125 29.875 C23.68470177 20.23333353 23.87291835 10.79460362 24.75 1.1875 C31.68 1.1875 38.61 1.1875 45.75 1.1875 C45.91176437 7.64523629 46.0507612 14.09579767 46.13452148 20.55395508 C46.1694731 22.74495406 46.21705276 24.93579282 46.27807617 27.1262207 C46.95793813 52.17827678 46.95793813 52.17827678 38.75 61.1875 C35.88028441 63.34638356 33.18381481 64.45229474 29.75 65.4375 C28.98171875 65.70433594 28.2134375 65.97117187 27.421875 66.24609375 C19.45337454 68.91581244 12.97212392 69.63578343 4.875 67.3125 C3.74771484 67.09013672 3.74771484 67.09013672 2.59765625 66.86328125 C-3.398417 65.10457023 -6.28674852 61.10292566 -9.28515625 55.90234375 C-14.87727308 45.22617895 -14.26025448 34.36705613 -13.8125 22.625 C-13.76722921 20.53459303 -13.72618715 18.44409004 -13.68945312 16.35351562 C-13.59155592 11.29574915 -13.43699375 6.24272408 -13.25 1.1875 C-4.24227335 0.03421188 -4.24227335 0.03421188 0 0 Z M-8.25 4.1875 C-7.26 5.8375 -6.27 7.4875 -5.25 9.1875 C-2.08884224 7.81766497 -1.2572908 7.1984362 0.75 4.1875 C-2.22 4.1875 -5.19 4.1875 -8.25 4.1875 Z M30.75 4.1875 C32.07 5.5075 33.39 6.8275 34.75 8.1875 C36.07 6.8675 37.39 5.5475 38.75 4.1875 C36.11 4.1875 33.47 4.1875 30.75 4.1875 Z M1.1875 8.5625 C-1.47681703 10.83473409 -1.47681703 10.83473409 -1.25 13.1875 C0.73 14.1775 2.71 15.1675 4.75 16.1875 C4.75 12.8875 4.75 9.5875 4.75 6.1875 C3.28992901 6.07420589 3.28992901 6.07420589 1.1875 8.5625 Z M27.75 7.1875 C27.75 9.4975 27.75 11.8075 27.75 14.1875 C28.74 13.5275 29.73 12.8675 30.75 12.1875 C30.09 10.5375 29.43 8.8875 28.75 7.1875 C28.42 7.1875 28.09 7.1875 27.75 7.1875 Z M-10.25 8.1875 C-10.25 11.1575 -10.25 14.1275 -10.25 17.1875 C-9.26 16.1975 -8.27 15.2075 -7.25 14.1875 C-7.91 12.2075 -8.57 10.2275 -9.25 8.1875 C-9.58 8.1875 -9.91 8.1875 -10.25 8.1875 Z M41.75 10.1875 C41.09 12.1675 40.43 14.1475 39.75 16.1875 C40.74 17.1775 41.73 18.1675 42.75 19.1875 C42.75 16.2175 42.75 13.2475 42.75 10.1875 C42.42 10.1875 42.09 10.1875 41.75 10.1875 Z M32.75 14.1875 C30.48787565 16.45263223 30.48787565 16.45263223 28.75 19.1875 C29.08 20.1775 29.41 21.1675 29.75 22.1875 C32.31249975 19.87517578 32.31249975 19.87517578 34.75 17.1875 C34.75 16.1975 34.75 15.2075 34.75 14.1875 C34.09 14.1875 33.43 14.1875 32.75 14.1875 Z M-5.25 17.1875 C-5.58 18.1775 -5.91 19.1675 -6.25 20.1875 C-5.26 19.8575 -4.27 19.5275 -3.25 19.1875 C-3.91 18.5275 -4.57 17.8675 -5.25 17.1875 Z M36.75 19.1875 C35.43 21.8275 34.11 24.4675 32.75 27.1875 C36.03696233 27.98703138 37.46023192 28.28408936 40.75 27.1875 C40.22731534 24.42473823 39.64130413 21.8614124 38.75 19.1875 C38.09 19.1875 37.43 19.1875 36.75 19.1875 Z M-8.25 25.1875 C-6.6 26.8375 -4.95 28.4875 -3.25 30.1875 C-1.62168238 28.37788423 -1.62168238 28.37788423 -0.25 26.1875 C-0.58 25.1975 -0.91 24.2075 -1.25 23.1875 C-3.8965335 23.1875 -5.8308163 24.16889634 -8.25 25.1875 Z M0.75 30.1875 C0.09 31.5075 -0.57 32.8275 -1.25 34.1875 C-0.26 34.5175 0.73 34.8475 1.75 35.1875 C2.41 34.8575 3.07 34.5275 3.75 34.1875 C3.42 32.8675 3.09 31.5475 2.75 30.1875 C2.09 30.1875 1.43 30.1875 0.75 30.1875 Z M-9.25 31.1875 C-9.58 33.4975 -9.91 35.8075 -10.25 38.1875 C-8.93 37.1975 -7.61 36.2075 -6.25 35.1875 C-6.91 33.8675 -7.57 32.5475 -8.25 31.1875 C-8.58 31.1875 -8.91 31.1875 -9.25 31.1875 Z M37.75 31.1875 C38.2293247 35.50142226 39.4957985 37.35319547 42.75 40.1875 C42.75 36.8875 42.75 33.5875 42.75 30.1875 C41.02917076 30.1875 39.40771414 30.7597028 37.75 31.1875 Z M30.75 33.1875 C31.08 33.8475 31.41 34.5075 31.75 35.1875 C32.41 35.1875 33.07 35.1875 33.75 35.1875 C33.75 34.5275 33.75 33.8675 33.75 33.1875 C32.76 33.1875 31.77 33.1875 30.75 33.1875 Z M-1.25 40.1875 C-1.58 40.8475 -1.91 41.5075 -2.25 42.1875 C-1.26 42.1875 -0.27 42.1875 0.75 42.1875 C0.75 41.5275 0.75 40.8675 0.75 40.1875 C0.09 40.1875 -0.57 40.1875 -1.25 40.1875 Z M31.75 40.1875 C32.30728913 43.53123475 33.10173889 46.22062999 34.75 49.1875 C36.91874252 48.68146008 38.74967627 48.18766187 40.75 47.1875 C40.75 46.5275 40.75 45.8675 40.75 45.1875 C39.26363242 43.8268991 39.26363242 43.8268991 37.375 42.5625 C36.74851562 42.11648437 36.12203125 41.67046875 35.4765625 41.2109375 C33.79777357 40.01753031 33.79777357 40.01753031 31.75 40.1875 Z M27.75 43.1875 C26.89349347 45.98795046 26.89349347 45.98795046 26.75 49.1875 C28.56287195 51.58545381 28.56287195 51.58545381 30.75 53.1875 C31.55469849 51.48637008 31.55469849 51.48637008 31.75 49.1875 C30.39185993 45.97037055 30.39185993 45.97037055 28.75 43.1875 C28.42 43.1875 28.09 43.1875 27.75 43.1875 Z M-5.25 46.1875 C-2.69008376 48.19886276 -0.20409701 49.81595496 2.75 51.1875 C2.75 49.5375 2.75 47.8875 2.75 46.1875 C0.11 46.1875 -2.53 46.1875 -5.25 46.1875 Z M6.75 48.1875 C6.42 50.1675 6.09 52.1475 5.75 54.1875 C7.73 53.5275 9.71 52.8675 11.75 52.1875 C11.42 51.1975 11.09 50.2075 10.75 49.1875 C8.73491642 48.45426204 8.73491642 48.45426204 6.75 48.1875 Z M-5.25 51.1875 C-4.67415568 53.57314077 -4.02772405 55.85432784 -3.25 58.1875 C-1.93 57.5275 -0.61 56.8675 0.75 56.1875 C0.75 55.5275 0.75 54.8675 0.75 54.1875 C-1.23 53.1975 -3.21 52.2075 -5.25 51.1875 Z M13.625 54.6875 C12.90054688 55.1515625 12.17609375 55.615625 11.4296875 56.09375 C10.87539063 56.4546875 10.32109375 56.815625 9.75 57.1875 C11.36594832 59.22869788 13.0356382 61.22822937 14.75 63.1875 C15.41 63.1875 16.07 63.1875 16.75 63.1875 C17.25615298 61.91910474 17.75469099 60.64766898 18.25 59.375 C18.5284375 58.66730469 18.806875 57.95960937 19.09375 57.23046875 C19.9029162 55.06908784 19.9029162 55.06908784 19.75 52.1875 C17.07449708 52.1875 15.85955359 53.24585252 13.625 54.6875 Z M23.75 52.1875 C23.09 54.4975 22.43 56.8075 21.75 59.1875 C23.4 58.5275 25.05 57.8675 26.75 57.1875 C26.09 55.5375 25.43 53.8875 24.75 52.1875 C24.42 52.1875 24.09 52.1875 23.75 52.1875 Z M27.75 59.1875 C27.75 59.8475 27.75 60.5075 27.75 61.1875 C30.06 60.5275 32.37 59.8675 34.75 59.1875 C34.75 58.1975 34.75 57.2075 34.75 56.1875 C31.22967572 56.1875 30.3114657 56.89101351 27.75 59.1875 Z M4.75 59.1875 C4.09 59.8475 3.43 60.5075 2.75 61.1875 C5.56509993 63.4648501 5.56509993 63.4648501 8.75 63.1875 C8.09 61.8675 7.43 60.5475 6.75 59.1875 C6.09 59.1875 5.43 59.1875 4.75 59.1875 Z " fill="#6FB5B6" transform="translate(51.25,7.8125)"/>
<path d="M0 0 C6.93 0 13.86 0 21 0 C21.16176437 6.45773629 21.3007612 12.90829767 21.38452148 19.36645508 C21.4194731 21.55745406 21.46705276 23.74829282 21.52807617 25.9387207 C21.88090511 38.94002218 22.1465639 49.31066901 14 60 C13.34 60 12.68 60 12 60 C11.67 59.01 11.34 58.02 11 57 C11.66 57 12.32 57 13 57 C13.0825 56.2575 13.165 55.515 13.25 54.75 C14.14842053 51.4557914 15.58524799 50.33929101 18 48 C18.7872678 45.8618034 18.7872678 45.8618034 19 44 C18.34 43.54625 17.68 43.0925 17 42.625 C16.34 42.08875 15.68 41.5525 15 41 C15 40.34 15 39.68 15 39 C13.515 38.505 13.515 38.505 12 38 C9 34.55555556 9 34.55555556 9 32 C6.03 32.495 6.03 32.495 3 33 C2.92572162 36.34252724 2.93453047 38.8035914 4 42 C3.79375 42.94875 3.5875 43.8975 3.375 44.875 C2.91680671 48.69327745 3.9231096 49.8846644 6 53 C5.67 53.66 5.34 54.32 5 55 C0.125 54.125 0.125 54.125 -1 53 C-1.66 55.31 -2.32 57.62 -3 60 C-3.66 60 -4.32 60 -5 60 C-5 60.66 -5 61.32 -5 62 C-5.99 62 -6.98 62 -8 62 C-7.125 56.25 -7.125 56.25 -6 54 C-6.12766573 51.9892647 -6.25821403 49.97799031 -6.453125 47.97265625 C-6.22882813 46.99619141 -6.22882813 46.99619141 -6 46 C-5.175 45.59628174 -4.35 45.19256348 -3.5 44.77661133 C-0.69644527 43.21819993 -0.69644527 43.21819993 -0.44824219 40.11181641 C-0.48079102 38.95343262 -0.51333984 37.79504883 -0.546875 36.6015625 C-0.5675 35.31636719 -0.588125 34.03117187 -0.609375 32.70703125 C-0.65504762 31.34631328 -0.7019279 29.98563532 -0.75 28.625 C-0.81225103 25.99230009 -0.86958272 23.35947904 -0.921875 20.7265625 C-0.94830078 19.44297852 -0.97472656 18.15939453 -1.00195312 16.83691406 C-0.99907495 11.18274178 -0.52539412 5.62808547 0 0 Z M6 3 C7.32 4.32 8.64 5.64 10 7 C11.32 5.68 12.64 4.36 14 3 C11.36 3 8.72 3 6 3 Z M3 6 C3 8.31 3 10.62 3 13 C3.99 12.34 4.98 11.68 6 11 C5.34 9.35 4.68 7.7 4 6 C3.67 6 3.34 6 3 6 Z M17 9 C16.34 10.98 15.68 12.96 15 15 C15.99 15.99 16.98 16.98 18 18 C18 15.03 18 12.06 18 9 C17.67 9 17.34 9 17 9 Z M8 13 C5.73787565 15.26513223 5.73787565 15.26513223 4 18 C4.33 18.99 4.66 19.98 5 21 C7.56249975 18.68767578 7.56249975 18.68767578 10 16 C10 15.01 10 14.02 10 13 C9.34 13 8.68 13 8 13 Z M12 18 C10.68 20.64 9.36 23.28 8 26 C11.28696233 26.79953138 12.71023192 27.09658936 16 26 C15.47731534 23.23723823 14.89130413 20.6739124 14 18 C13.34 18 12.68 18 12 18 Z M13 30 C13.4793247 34.31392226 14.7457985 36.16569547 18 39 C18 35.7 18 32.4 18 29 C16.27917076 29 14.65771414 29.5722028 13 30 Z " fill="#ADB393" transform="translate(76,9)"/>
<path d="M0 0 C1.32 0.33 2.64 0.66 4 1 C3.67 3.31 3.34 5.62 3 8 C5.1385485 5.8614515 5.42655063 4.86724686 6 2 C7.65 1.67 9.3 1.34 11 1 C11.2475 1.804375 11.495 2.60875 11.75 3.4375 C12.36875 4.7059375 12.36875 4.7059375 13 6 C15.03028196 6.69535873 15.03028196 6.69535873 17 7 C17.19916016 8.04800781 17.19916016 8.04800781 17.40234375 9.1171875 C17.57894531 10.02726562 17.75554688 10.93734375 17.9375 11.875 C18.11152344 12.77992187 18.28554688 13.68484375 18.46484375 14.6171875 C18.89963701 16.99956317 18.89963701 16.99956317 20 19 C19.39421747 21.01927511 18.73080266 23.02253397 18 25 C19.98 24.34 21.96 23.68 24 23 C24 22.34 24 21.68 24 21 C26.31 20.01 28.62 19.02 31 18 C31.33 19.65 31.66 21.3 32 23 C29.03 24.65 26.06 26.3 23 28 C25.62948691 31.87952544 25.62948691 31.87952544 29.75 33.8125 C30.86375 33.9053125 30.86375 33.9053125 32 34 C32 33.34 32 32.68 32 32 C32.66 32 33.32 32 34 32 C34 31.34 34 30.68 34 30 C36.90548882 27.95830515 38.40142046 27 42 27 C43.46850483 21.24835608 42.54278917 18.40825214 39.92578125 13.15625 C38.72649678 10.36297985 38.6923331 7.99975226 39 5 C40.625 4.25 40.625 4.25 43 4 C47.36112561 6.36227637 50.05195772 9.06927696 53 13 C54.31494512 14.35147138 55.64264858 15.69112542 57 17 C55.33088285 20.57667962 53.84061925 23.28288593 51 26 C49.41086442 28.67643887 49 29.8180056 49 33 C45.98915079 34.21397224 42.96515873 35.39115082 39.9375 36.5625 C38.66616211 37.07586914 38.66616211 37.07586914 37.36914062 37.59960938 C32.11860216 39.60657195 28.61015684 40.4041951 23 39 C21.84757812 38.72542969 20.69515625 38.45085937 19.5078125 38.16796875 C17.83332031 37.68263672 17.83332031 37.68263672 16.125 37.1875 C14.42730469 36.71376953 14.42730469 36.71376953 12.6953125 36.23046875 C10 35 10 35 9.1171875 32.86328125 C9.07851563 32.24839844 9.03984375 31.63351563 9 31 C10.32 30.67 11.64 30.34 13 30 C13.66 25.71 14.32 21.42 15 17 C13.02 17 11.04 17 9 17 C9.66 15.68 10.32 14.36 11 13 C11.66 13 12.32 13 13 13 C13 12.34 13 11.68 13 11 C11.700625 11.99 11.700625 11.99 10.375 13 C6.78027189 15.13020925 5.0834708 15.47482219 1 15 C0 14 0 14 -0.09765625 10.83984375 C-0.08025391 8.90818359 -0.08025391 8.90818359 -0.0625 6.9375 C-0.05347656 5.64714844 -0.04445312 4.35679688 -0.03515625 3.02734375 C-0.02355469 2.02832031 -0.01195312 1.02929688 0 0 Z M44 11 C44.55728913 14.34373475 45.35173889 17.03312999 47 20 C49.16874252 19.49396008 50.99967627 19.00016187 53 18 C53 17.34 53 16.68 53 16 C51.51363242 14.6393991 51.51363242 14.6393991 49.625 13.375 C48.99851562 12.92898437 48.37203125 12.48296875 47.7265625 12.0234375 C46.04777357 10.83003031 46.04777357 10.83003031 44 11 Z M40 30 C40 30.66 40 31.32 40 32 C42.31 31.34 44.62 30.68 47 30 C47 29.01 47 28.02 47 27 C43.47967572 27 42.5614657 27.70351351 40 30 Z M17 30 C16.34 30.66 15.68 31.32 15 32 C17.81509993 34.2773501 17.81509993 34.2773501 21 34 C20.34 32.68 19.68 31.36 19 30 C18.34 30 17.68 30 17 30 Z " fill="#70A8C1" transform="translate(39,37)"/>
<path d="M0 0 C6.01930102 0.85990015 9.47209216 4.33405738 13 9 C14.31494512 10.35147138 15.64264858 11.69112542 17 13 C15.33088285 16.57667962 13.84061925 19.28288593 11 22 C9.41086442 24.67643887 9 25.8180056 9 29 C6.37646482 30.00399524 3.75132205 31.00334445 1.125 32 C0.00544922 32.42925781 0.00544922 32.42925781 -1.13671875 32.8671875 C-6.7734375 35 -6.7734375 35 -9 35 C-9 34.01 -9 33.02 -9 32 C-9.99 32 -10.98 32 -12 32 C-12 31.34 -12 30.68 -12 30 C-10.68 30 -9.36 30 -8 30 C-8 29.34 -8 28.68 -8 28 C-7.34 28 -6.68 28 -6 28 C-6 27.34 -6 26.68 -6 26 C-3.09451118 23.95830515 -1.59857954 23 2 23 C3.46923735 17.24548706 2.53619549 14.41029953 -0.0703125 9.15234375 C-1.28670191 6.33624894 -1.37802978 4.02423825 -1 1 C-0.67 0.67 -0.34 0.34 0 0 Z M4 7 C4.55728913 10.34373475 5.35173889 13.03312999 7 16 C9.16874252 15.49396008 10.99967627 15.00016187 13 14 C13 13.34 13 12.68 13 12 C11.51363242 10.6393991 11.51363242 10.6393991 9.625 9.375 C8.99851562 8.92898437 8.37203125 8.48296875 7.7265625 8.0234375 C6.04777357 6.83003031 6.04777357 6.83003031 4 7 Z M0 26 C0 26.66 0 27.32 0 28 C2.31 27.34 4.62 26.68 7 26 C7 25.01 7 24.02 7 23 C3.47967572 23 2.5614657 23.70351351 0 26 Z " fill="#83B5B0" transform="translate(79,41)"/>
<path d="M0 0 C0 2.97 0 5.94 0 9 C-1.65 7.68 -3.3 6.36 -5 5 C-5.61875 5.66 -6.2375 6.32 -6.875 7 C-9 9 -9 9 -11 9 C-11.33 9.99 -11.66 10.98 -12 12 C-13.875 11.6875 -13.875 11.6875 -16 11 C-16.66 10.01 -17.32 9.02 -18 8 C-18.99 8.33 -19.98 8.66 -21 9 C-21 10.65 -21 12.3 -21 14 C-21.33 14 -21.66 14 -22 14 C-22 9.05 -22 4.1 -22 -1 C-6.57142857 -3.28571429 -6.57142857 -3.28571429 0 0 Z M-17 2 C-16.01 3.65 -15.02 5.3 -14 7 C-10.83884224 5.63016497 -10.0072908 5.0109362 -8 2 C-10.97 2 -13.94 2 -17 2 Z " fill="#9489A4" transform="translate(60,10)"/>
<path d="M0 0 C0.1756663 4.31907462 0.30125802 8.63615198 0.38452148 12.95776367 C0.41929626 14.42134899 0.46673714 15.88469929 0.52807617 17.34741211 C0.98322223 28.4965782 -0.70296746 35.6421776 -7 45 C-7.66 45 -8.32 45 -9 45 C-9.495 43.515 -9.495 43.515 -10 42 C-9.34 42 -8.68 42 -8 42 C-7.9175 41.2575 -7.835 40.515 -7.75 39.75 C-6.85157947 36.4557914 -5.41475201 35.33929101 -3 33 C-2.2127322 30.8618034 -2.2127322 30.8618034 -2 29 C-2.66 28.54625 -3.32 28.0925 -4 27.625 C-4.66 27.08875 -5.32 26.5525 -6 26 C-6 25.34 -6 24.68 -6 24 C-6.99 23.67 -7.98 23.34 -9 23 C-9.6875 20.9375 -9.6875 20.9375 -10 19 C-9.01 18.67 -8.02 18.34 -7 18 C-6.01 19.32 -5.02 20.64 -4 22 C-3.67 19.36 -3.34 16.72 -3 14 C-3.99 13.67 -4.98 13.34 -6 13 C-6.66 12.34 -7.32 11.68 -8 11 C-7.01 11 -6.02 11 -5 11 C-5.61875 9.6696875 -5.61875 9.6696875 -6.25 8.3125 C-7 5 -7 5 -5.3125 2.125 C-3 0 -3 0 0 0 Z " fill="#948CA3" transform="translate(97,24)"/>
<path d="M0 0 C2 1 2 1 4 3 C4.36933645 5.75372909 4.18336678 8.20365661 4 11 C0.71303767 11.79953138 -0.71023192 12.09658936 -4 11 C-3.67 12.98 -3.34 14.96 -3 17 C-3.66 17.33 -4.32 17.66 -5 18 C-7.01136276 15.44008376 -8.62845496 12.95409701 -10 10 C-10.99 11.485 -10.99 11.485 -12 13 C-12.66 13 -13.32 13 -14 13 C-14 13.99 -14 14.98 -14 16 C-15.32 16 -16.64 16 -18 16 C-18.07654536 11.48382401 -18.10228696 7.40914783 -17 3 C-16.01 3 -15.02 3 -14 3 C-14 4.65 -14 6.3 -14 8 C-13.566875 7.505 -13.13375 7.01 -12.6875 6.5 C-11 5 -11 5 -8 5 C-7.34 4.34 -6.68 3.68 -6 3 C-6 3.66 -6 4.32 -6 5 C-3.525 5.99 -3.525 5.99 -1 7 C-0.67 4.69 -0.34 2.38 0 0 Z " fill="#87A1A3" transform="translate(56,16)"/>
<path d="M0 0 C1.65 0 3.3 0 5 0 C5.33 4.29 5.66 8.58 6 13 C7.32 13 8.64 13 10 13 C10.33 8.71 10.66 4.42 11 0 C12.32 0 13.64 0 15 0 C15.0809723 2.43816585 15.14046972 4.87364384 15.1875 7.3125 C15.22520508 8.34793945 15.22520508 8.34793945 15.26367188 9.40429688 C15.33769338 14.51178054 15.33769338 14.51178054 13.66796875 16.92578125 C11.09338123 18.58388797 9.04554405 18.87817824 6 19 C1.43478261 16.86956522 1.43478261 16.86956522 0 14 C-0.07116382 11.62597499 -0.08409085 9.24999323 -0.0625 6.875 C-0.05347656 5.59367187 -0.04445313 4.31234375 -0.03515625 2.9921875 C-0.02355469 2.00476563 -0.01195312 1.01734375 0 0 Z " fill="#313389" transform="translate(10,78)"/>
<path d="M0 0 C1.32 0 2.64 0 4 0 C4 6.27 4 12.54 4 19 C-5.22222222 19 -5.22222222 19 -8 17 C-9.54586876 13.90826248 -9.29359521 11.40570448 -9 8 C-7.3125 5.5 -7.3125 5.5 -5 4 C-2.25 4.25 -2.25 4.25 0 5 C-0.2784375 4.0409375 -0.2784375 4.0409375 -0.5625 3.0625 C-0.706875 2.381875 -0.85125 1.70125 -1 1 C-0.67 0.67 -0.34 0.34 0 0 Z M-3 8 C-4.29633621 9.06645115 -4.29633621 9.06645115 -4.0625 11.5625 C-4.041875 12.366875 -4.02125 13.17125 -4 14 C-3.01 14 -2.02 14 -1 14 C-0.67 12.35 -0.34 10.7 0 9 C-0.99 8.67 -1.98 8.34 -3 8 Z " fill="#2E2E85" transform="translate(109,78)"/>
<path d="M0 0 C1.32 0 2.64 0 4 0 C4.33 1.65 4.66 3.3 5 5 C5.86625 4.6596875 5.86625 4.6596875 6.75 4.3125 C9 4 9 4 11.25 4.875 C13.68195497 7.82808818 13.63055496 10.15207265 13.44140625 13.8984375 C13 16 13 16 11 18.125 C8 19 8 19 0 18 C0 12.06 0 6.12 0 0 Z M6 8 C5.34 9.32 4.68 10.64 4 12 C4.99 12.99 5.98 13.98 7 15 C8.12516085 13.16715557 8.12516085 13.16715557 9 11 C8.67 10.01 8.34 9.02 8 8 C7.34 8 6.68 8 6 8 Z " fill="#323491" transform="translate(42,78)"/>
<path d="M0 0 C1.98 1.32 3.96 2.64 6 4 C3.19280206 11.0848329 3.19280206 11.0848329 0 14 C-1.58913558 16.67643887 -2 17.8180056 -2 21 C-4.28855702 21.86343731 -6.5801928 22.7159811 -8.875 23.5625 C-9.52597656 23.80935547 -10.17695312 24.05621094 -10.84765625 24.31054688 C-12.54497665 24.93173115 -14.27156776 25.47152252 -16 26 C-16.66 25.67 -17.32 25.34 -18 25 C-18 23.68 -18 22.36 -18 21 C-16.23050388 20.49528803 -14.45934777 19.99639315 -12.6875 19.5 C-11.70136719 19.2215625 -10.71523437 18.943125 -9.69921875 18.65625 C-7 18 -7 18 -4 18 C-4 17.01 -4 16.02 -4 15 C-4.99 14.67 -5.98 14.34 -7 14 C-6.67 12.02 -6.34 10.04 -6 8 C-3.36 7.34 -0.72 6.68 2 6 C1.34 4.02 0.68 2.04 0 0 Z " fill="#7DA3C4" transform="translate(90,49)"/>
<path d="M0 0 C0.66 0.33 1.32 0.66 2 1 C2.37890625 3.1796875 2.37890625 3.1796875 2.5625 5.875 C2.77628346 8.86796839 3.04428957 11.1328687 4 14 C3.79375 14.94875 3.5875 15.8975 3.375 16.875 C2.91680671 20.69327745 3.9231096 21.8846644 6 25 C5.67 25.66 5.34 26.32 5 27 C0.125 26.125 0.125 26.125 -1 25 C-1.66 27.31 -2.32 29.62 -3 32 C-3.66 32 -4.32 32 -5 32 C-5 32.66 -5 33.32 -5 34 C-5.99 34 -6.98 34 -8 34 C-7.125 28.25 -7.125 28.25 -6 26 C-6.12766573 23.9892647 -6.25821403 21.97799031 -6.453125 19.97265625 C-6.30359375 19.32167969 -6.1540625 18.67070313 -6 18 C-4.77990234 17.36964844 -4.77990234 17.36964844 -3.53515625 16.7265625 C-0.59729861 15.15967082 -0.59729861 15.15967082 -0.29296875 11.42578125 C-0.23339267 10.05553137 -0.19902518 8.68399597 -0.1875 7.3125 C-0.16236328 6.61060547 -0.13722656 5.90871094 -0.11132812 5.18554688 C-0.05255552 3.45763219 -0.0233903 1.7287557 0 0 Z " fill="#A3BB92" transform="translate(76,37)"/>
<path d="M0 0 C0.79148437 -0.02578125 1.58296875 -0.0515625 2.3984375 -0.078125 C4.625 0.25 4.625 0.25 6.40234375 1.41015625 C8.11532753 3.9878411 7.92060325 5.87457448 7.8125 8.9375 C7.78542969 9.93136719 7.75835937 10.92523438 7.73046875 11.94921875 C7.69566406 12.70847656 7.66085938 13.46773437 7.625 14.25 C6.305 14.58 4.985 14.91 3.625 15.25 C2.42227181 12.84454362 2.52428528 11.30003047 2.5625 8.625 C2.57152344 7.80773437 2.58054687 6.99046875 2.58984375 6.1484375 C2.60144531 5.52195312 2.61304688 4.89546875 2.625 4.25 C1.635 4.745 1.635 4.745 0.625 5.25 C0.15848793 7.37576782 0.15848793 7.37576782 0 9.8125 C-0.07476562 10.63878906 -0.14953125 11.46507813 -0.2265625 12.31640625 C-0.27554688 12.95449219 -0.32453125 13.59257813 -0.375 14.25 C-2.3125 14.8125 -2.3125 14.8125 -4.375 15.25 C-5.375 14.25 -5.375 14.25 -5.5078125 11.34375 C-5.50523438 10.1578125 -5.50265625 8.971875 -5.5 7.75 C-5.50257812 6.5640625 -5.50515625 5.378125 -5.5078125 4.15625 C-5.30316528 -0.3219128 -4.09582694 0.07953062 0 0 Z " fill="#30318D" transform="translate(32.375,81.75)"/>
<path d="M0 0 C0.33 2.97 0.66 5.94 1 9 C1.33 9 1.66 9 2 9 C2.04898438 8.36191406 2.09796875 7.72382812 2.1484375 7.06640625 C2.22320312 6.24011719 2.29796875 5.41382812 2.375 4.5625 C2.44460937 3.73878906 2.51421875 2.91507812 2.5859375 2.06640625 C2.72257812 1.38449219 2.85921875 0.70257813 3 0 C3.66 -0.33 4.32 -0.66 5 -1 C5.99 -0.67 6.98 -0.34 8 0 C8 4.29 8 8.58 8 13 C3.74813913 14.06296522 1.24029149 13.942287 -3 13 C-5.10827055 9.83759418 -5.33817465 8.49342531 -5.625 4.8125 C-5.69976562 3.91144531 -5.77453125 3.01039062 -5.8515625 2.08203125 C-5.90054688 1.39496094 -5.94953125 0.70789063 -6 0 C-4 -1 -4 -1 0 0 Z " fill="#2C2F8C" transform="translate(76,83)"/>
<path d="M0 0 C8.11084337 -0.47710843 8.11084337 -0.47710843 11.5625 1.375 C13.79015889 5.44289884 13.31179274 9.46168352 13 14 C11.35 14 9.7 14 8 14 C7.67 11.03 7.34 8.06 7 5 C6.34 5 5.68 5 5 5 C4.67 7.97 4.34 10.94 4 14 C2.68 14 1.36 14 0 14 C0 9.38 0 4.76 0 0 Z " fill="#2A2E8F" transform="translate(86,82)"/>
<path d="M0 0 C1.875 1.625 1.875 1.625 3 4 C3 7.5625 3 7.5625 2 11 C-0.1875 13.0625 -0.1875 13.0625 -3 14 C-6.1875 13.375 -6.1875 13.375 -9 12 C-11 9 -11 9 -10.9375 5.5 C-10 2 -10 2 -7.75 0 C-4.54537542 -1.16531803 -3.16237842 -1.24830727 0 0 Z M-5 3 C-6.29633621 4.06645115 -6.29633621 4.06645115 -6.0625 6.5625 C-6.041875 7.366875 -6.02125 8.17125 -6 9 C-4.68 9 -3.36 9 -2 9 C-2 7.35 -2 5.7 -2 4 C-2.99 3.67 -3.98 3.34 -5 3 Z " fill="#2B2F90" transform="translate(67,83)"/>
<path d="M0 0 C1.32 0.33 2.64 0.66 4 1 C3.67 3.31 3.34 5.62 3 8 C5.1385485 5.8614515 5.42655063 4.86724686 6 2 C7.65 1.67 9.3 1.34 11 1 C12.04449911 4.13349732 11.93423645 4.98968256 11 8 C11.66 8.33 12.32 8.66 13 9 C7 15 7 15 4 15.125 C1 15 1 15 0 14 C-0.07271741 11.64686445 -0.08370868 9.29166332 -0.0625 6.9375 C-0.05347656 5.64714844 -0.04445312 4.35679688 -0.03515625 3.02734375 C-0.02355469 2.02832031 -0.01195312 1.02929688 0 0 Z " fill="#63AEC8" transform="translate(39,37)"/>
<path d="M0 0 C3.3 0 6.6 0 10 0 C10 4.95 10 9.9 10 15 C9.01 15 8.02 15 7 15 C6.67 13.68 6.34 12.36 6 11 C4.68 11 3.36 11 2 11 C-0.25 9 -0.25 9 -2 7 C-1.01 6.01 -0.02 5.02 1 4 C0.34 3.67 -0.32 3.34 -1 3 C-0.67 2.01 -0.34 1.02 0 0 Z " fill="#ABB47F" transform="translate(87,9)"/>
<path d="M0 0 C6.43985624 -0.67081836 9.83783423 1.24569762 15 5 C14.38983051 10.49152542 14.38983051 10.49152542 12.5625 12.875 C11 14 11 14 9 14 C8.67 14.99 8.34 15.98 8 17 C6.66161267 14.54429825 5.32913768 12.08570084 4 9.625 C3.6184375 8.92632812 3.236875 8.22765625 2.84375 7.5078125 C0 2.2265625 0 2.2265625 0 0 Z M7 5 C7.57584432 7.38564077 8.22227595 9.66682784 9 12 C10.32 11.34 11.64 10.68 13 10 C13 9.34 13 8.68 13 8 C11.02 7.01 9.04 6.02 7 5 Z " fill="#A192BA" transform="translate(39,54)"/>
<path d="M0 0 C0.99 0.99 1.98 1.98 3 3 C3.66 2.67 4.32 2.34 5 2 C5.00257812 3.10859375 5.00515625 4.2171875 5.0078125 5.359375 C5.04534024 6.82295682 5.08448783 8.28649774 5.125 9.75 C5.12242188 10.47960938 5.11984375 11.20921875 5.1171875 11.9609375 C5.14680297 14.42021598 5.14680297 14.42021598 6 18 C8.89005451 20.5682491 8.89005451 20.5682491 12 22 C11.67 22.66 11.34 23.32 11 24 C7.29258749 23.74722187 5.46290515 23.4253723 2.6875 20.875 C1 18 1 18 0.5 14.3125 C0.335 13.219375 0.17 12.12625 0 11 C-1.93597032 9.48705712 -1.93597032 9.48705712 -4 9 C-2.68 8.67 -1.36 8.34 0 8 C-0.37125 7.236875 -0.7425 6.47375 -1.125 5.6875 C-1.41375 4.800625 -1.7025 3.91375 -2 3 C-1.34 2.01 -0.68 1.02 0 0 Z " fill="#9FB78E" transform="translate(55,34)"/>
<path d="M0 0 C1.98 0.495 1.98 0.495 4 1 C4 4.66666667 4 8.33333333 4 12 C4.99 12 5.98 12 7 12 C6.649375 12.845625 6.29875 13.69125 5.9375 14.5625 C4.87722491 18.45017533 5.21685128 21.08425639 6 25 C4.02 25.33 2.04 25.66 0 26 C-0.93855755 17.17755905 -0.93855755 8.82244095 0 0 Z " fill="#A398B8" transform="translate(76,9)"/>
<path d="M0 0 C0.99 0.33 1.98 0.66 3 1 C2.67 1.33 2.34 1.66 2 2 C3.98 2.66 5.96 3.32 8 4 C8.33 2.68 8.66 1.36 9 0 C10.7074998 1.28062485 12.37373596 2.61767557 14 4 C14 4.66 14 5.32 14 6 C14.99 6 15.98 6 17 6 C16.67 7.32 16.34 8.64 16 10 C9.3227105 9.39297368 3.29872004 7.22368606 -3 5 C-2.34 4.67 -1.68 4.34 -1 4 C-0.34786708 1.97536745 -0.34786708 1.97536745 0 0 Z " fill="#5FB5C2" transform="translate(53,67)"/>
<path d="M0 0 C1.98 0.66 3.96 1.32 6 2 C6.13277344 2.69867188 6.26554687 3.39734375 6.40234375 4.1171875 C6.57894531 5.02726562 6.75554688 5.93734375 6.9375 6.875 C7.11152344 7.77992187 7.28554688 8.68484375 7.46484375 9.6171875 C7.89963701 11.99956317 7.89963701 11.99956317 9 14 C8.39421747 16.01927511 7.73080266 18.02253397 7 20 C6.01 19.67 5.02 19.34 4 19 C4 16.69 4 14.38 4 12 C2.02 12 0.04 12 -2 12 C-1.34 10.68 -0.68 9.36 0 8 C0.66 8 1.32 8 2 8 C1.67 7.236875 1.34 6.47375 1 5.6875 C0 3 0 3 0 0 Z " fill="#87C0CA" transform="translate(50,42)"/>
<path d="M0 0 C2.64 0 5.28 0 8 0 C8.05399736 1.45792884 8.09279177 2.91642712 8.125 4.375 C8.14820313 5.18710937 8.17140625 5.99921875 8.1953125 6.8359375 C8 9 8 9 6 11 C5.608125 10.505 5.21625 10.01 4.8125 9.5 C2.44908285 7.54406857 0.98564997 7.75792027 -2 8 C-1.34 7.34 -0.68 6.68 0 6 C0.16681109 2.91652174 0.16681109 2.91652174 0 0 Z " fill="#7EBDBE" transform="translate(52,27)"/>
<path d="M0 0 C2.64 0 5.28 0 8 0 C7.67 0.99 7.34 1.98 7 3 C6.01 3.33 5.02 3.66 4 4 C4.66 4.66 5.32 5.32 6 6 C6.875 8.25 6.875 8.25 7 11 C5.0625 14.3125 5.0625 14.3125 3 17 C1.875 13.25 1.875 13.25 3 11 C2.505 10.21625 2.01 9.4325 1.5 8.625 C0 6 0 6 0.375 3.8125 C0.58125 3.214375 0.7875 2.61625 1 2 C0.67 1.34 0.34 0.68 0 0 Z " fill="#9C9D94" transform="translate(79,9)"/>
<path d="M0 0 C0 2.97 0 5.94 0 9 C-1.65 7.68 -3.3 6.36 -5 5 C-6.65 6.32 -8.3 7.64 -10 9 C-10.33 8.34 -10.66 7.68 -11 7 C-10.34 7 -9.68 7 -9 7 C-8.3185177 5.10820797 -8.3185177 5.10820797 -8 3 C-8.66 2.34 -9.32 1.68 -10 1 C-5.8922935 -0.58706842 -4.40767604 -1.10191901 0 0 Z " fill="#92859D" transform="translate(60,10)"/>
<path d="M0 0 C0.99 0.66 1.98 1.32 3 2 C0.71144298 2.86343731 -1.5801928 3.7159811 -3.875 4.5625 C-4.52597656 4.80935547 -5.17695312 5.05621094 -5.84765625 5.31054688 C-7.54497665 5.93173115 -9.27156776 6.47152252 -11 7 C-11.66 6.67 -12.32 6.34 -13 6 C-13 4.68 -13 3.36 -13 2 C-8.50316286 0.24513673 -4.82574442 -0.36420713 0 0 Z " fill="#5DA2AF" transform="translate(85,68)"/>
<path d="M0 0 C0.33 0 0.66 0 1 0 C1.28782406 3.05093503 1.44124443 5.95971825 1 9 C-1.3125 11.125 -1.3125 11.125 -4 12 C-4.99 11.67 -5.98 11.34 -7 11 C-7.33 10.01 -7.66 9.02 -8 8 C-8.66 7.67 -9.32 7.34 -10 7 C-9.34 5.68 -8.68 4.36 -8 3 C-7.01 4.32 -6.02 5.64 -5 7 C-4.34 6.01 -3.68 5.02 -3 4 C-2.01 4 -1.02 4 0 4 C0 2.68 0 1.36 0 0 Z " fill="#2A2E88" transform="translate(54,85)"/>
<path d="M0 0 C1.32 0.33 2.64 0.66 4 1 C4 4.66666667 4 8.33333333 4 12 C4.99 12 5.98 12 7 12 C6.34 13.98 5.68 15.96 5 18 C4.34 18 3.68 18 3 18 C2.67 16.02 2.34 14.04 2 12 C1.34 12 0.68 12 0 12 C0 8.04 0 4.08 0 0 Z " fill="#9187A4" transform="translate(76,9)"/>
<path d="M0 0 C0.99 0.99 1.98 1.98 3 3 C3.66 2.67 4.32 2.34 5 2 C4.67 5.3 4.34 8.6 4 12 C3.34 12 2.68 12 2 12 C2 11.34 2 10.68 2 10 C1.01 10.33 0.02 10.66 -1 11 C-1.99 10.34 -2.98 9.68 -4 9 C-2.68 8.67 -1.36 8.34 0 8 C-0.37125 7.236875 -0.7425 6.47375 -1.125 5.6875 C-1.41375 4.800625 -1.7025 3.91375 -2 3 C-1.34 2.01 -0.68 1.02 0 0 Z " fill="#8EB59B" transform="translate(55,34)"/>
<path d="M0 0 C3.375 -0.125 3.375 -0.125 7 0 C7.66 0.66 8.32 1.32 9 2 C8.625 4.125 8.625 4.125 8 6 C6.35 6 4.7 6 3 6 C2.67 6.66 2.34 7.32 2 8 C1.34 7.67 0.68 7.34 0 7 C0.33 6.01 0.66 5.02 1 4 C0.34 3.67 -0.32 3.34 -1 3 C-0.67 2.01 -0.34 1.02 0 0 Z " fill="#AFBA82" transform="translate(87,9)"/>
<path d="M0 0 C0 0.66 0 1.32 0 2 C-5.56069582 4.25433614 -11.0785651 4.59961828 -17 5 C-17.33 3.68 -17.66 2.36 -18 1 C-11.95170514 0.10395632 -6.1105424 -0.11269443 0 0 Z " fill="#9E96B2" transform="translate(56,8)"/>
<path d="M0 0 C0.99 0 1.98 0 3 0 C3 3.63 3 7.26 3 11 C1.35 11 -0.3 11 -2 11 C-2 2 -2 2 0 0 Z " fill="#2D3099" transform="translate(80,84)"/>
<path d="M0 0 C3.50524034 2.48758992 5.18428082 5.15697261 5.9375 9.375 C0.93836685 7.51817911 -3.04817812 5.89648281 -6.0625 1.375 C-2.66661899 -0.80806636 -2.66661899 -0.80806636 0 0 Z " fill="#85B9BD" transform="translate(86.0625,43.625)"/>
<path d="M0 0 C0.66 0 1.32 0 2 0 C2 5.28 2 10.56 2 16 C0.35 16 -1.3 16 -3 16 C-2.01 13.36 -1.02 10.72 0 8 C-0.66 7.67 -1.32 7.34 -2 7 C-1.34 4.69 -0.68 2.38 0 0 Z " fill="#2E2E9A" transform="translate(110,79)"/>
<path d="M0 0 C1.65 0 3.3 0 5 0 C6.46726798 3.81489674 5.43336419 6.29011622 4 10 C2.35 9.67 0.7 9.34 -1 9 C-0.01 8.67 0.98 8.34 2 8 C2 7.01 2 6.02 2 5 C1.01 4.67 0.02 4.34 -1 4 C-0.67 2.68 -0.34 1.36 0 0 Z " fill="#78B6CD" transform="translate(84,59)"/>
<path d="M0 0 C0.99 0 1.98 0 3 0 C2.979375 0.928125 2.95875 1.85625 2.9375 2.8125 C2.84230396 6.02286011 2.84230396 6.02286011 4 9 C3.5625 11.1875 3.5625 11.1875 3 13 C1.68 13 0.36 13 -1 13 C-1.07654536 8.48382401 -1.10228696 4.40914783 0 0 Z " fill="#99AA88" transform="translate(39,19)"/>
<path d="M0 0 C0.99 0.33 1.98 0.66 3 1 C2.67 1.33 2.34 1.66 2 2 C2.763125 2.268125 3.52625 2.53625 4.3125 2.8125 C6.91706367 3.96335371 8.15871605 4.89567548 10 7 C10.66 7.66 11.32 8.32 12 9 C1.44191344 7.07289294 1.44191344 7.07289294 -3 5 C-2.34 4.67 -1.68 4.34 -1 4 C-0.34786708 1.97536745 -0.34786708 1.97536745 0 0 Z " fill="#5791B0" transform="translate(53,67)"/>
<path d="M0 0 C0.66 0.33 1.32 0.66 2 1 C1.38983051 6.49152542 1.38983051 6.49152542 -0.4375 8.875 C-2 10 -2 10 -4 10 C-4.33 10.99 -4.66 11.98 -5 13 C-5.99 11.02 -6.98 9.04 -8 7 C-6.68 6.67 -5.36 6.34 -4 6 C-4 6.66 -4 7.32 -4 8 C-2.68 6.68 -1.36 5.36 0 4 C-0.99 3.67 -1.98 3.34 -3 3 C-2.01 2.01 -1.02 1.02 0 0 Z " fill="#8985AE" transform="translate(52,58)"/>
<path d="M0 0 C2 2 2 2 2 5 C-0.97 6.32 -3.94 7.64 -7 9 C-7.33 7.68 -7.66 6.36 -8 5 C-7.34 5 -6.68 5 -6 5 C-6 4.34 -6 3.68 -6 3 C-4.02 2.01 -2.04 1.02 0 0 Z " fill="#83BEC6" transform="translate(69,55)"/>
<path d="M0 0 C0.66 0.99 1.32 1.98 2 3 C1.01 4.485 1.01 4.485 0 6 C-0.33 5.67 -0.66 5.34 -1 5 C-1 6.65 -1 8.3 -1 10 C-2.32 10.33 -3.64 10.66 -5 11 C-5.84442152 8.04452467 -6.0653653 6.2614612 -5.3125 3.25 C-4 1 -4 1 -1.875 0.1875 C-1.25625 0.125625 -0.6375 0.06375 0 0 Z " fill="#6EAEC6" transform="translate(49,38)"/>
<path d="M0 0 C1.98 0 3.96 0 6 0 C6.33 0.99 6.66 1.98 7 3 C5.68 3 4.36 3 3 3 C2.67 4.32 2.34 5.64 2 7 C1.01 7 0.02 7 -1 7 C-1 6.34 -1 5.68 -1 5 C-1.99 4.67 -2.98 4.34 -4 4 C-3.01 4 -2.02 4 -1 4 C-0.67 2.68 -0.34 1.36 0 0 Z " fill="#ABAEA3" transform="translate(86,36)"/>
<path d="M0 0 C4 3 4 3 4.390625 5.04296875 C4.26041667 7.02864583 4.13020833 9.01432292 4 11 C2.35 10.67 0.7 10.34 -1 10 C-0.67 6.7 -0.34 3.4 0 0 Z " fill="#878978" transform="translate(56,16)"/>
<path d="M0 0 C0.66 0.33 1.32 0.66 2 1 C0.35 3.64 -1.3 6.28 -3 9 C-4.32 8.67 -5.64 8.34 -7 8 C-7.33 6.68 -7.66 5.36 -8 4 C-6.576875 3.566875 -6.576875 3.566875 -5.125 3.125 C-1.94788422 2.23174891 -1.94788422 2.23174891 0 0 Z " fill="#9C90B4" transform="translate(51,13)"/>
<path d="M0 0 C0.99 0 1.98 0 3 0 C3 3.63 3 7.26 3 11 C2.01 11.33 1.02 11.66 0 12 C0 8.04 0 4.08 0 0 Z " fill="#3634A0" transform="translate(11,79)"/>
<path d="M0 0 C1.32 0 2.64 0 4 0 C4 1.65 4 3.3 4 5 C3.01 4.67 2.02 4.34 1 4 C1 8.29 1 12.58 1 17 C2.32 17.33 3.64 17.66 5 18 C3.35 18 1.7 18 0 18 C0 12.06 0 6.12 0 0 Z " fill="#38388D" transform="translate(42,78)"/>
<path d="M0 0 C1 3 1 3 0.0625 5.1875 C-0.4634375 6.0846875 -0.4634375 6.0846875 -1 7 C-1.66 7 -2.32 7 -3 7 C-3.99 8.485 -3.99 8.485 -5 10 C-5.66 9.67 -6.32 9.34 -7 9 C-6.67 7.02 -6.34 5.04 -6 3 C-5.195625 2.87625 -4.39125 2.7525 -3.5625 2.625 C-2.716875 2.41875 -1.87125 2.2125 -1 2 C-0.67 1.34 -0.34 0.68 0 0 Z " fill="#919495" transform="translate(49,19)"/>
<path d="M0 0 C0.99 0.33 1.98 0.66 3 1 C2.125 7.75 2.125 7.75 1 10 C1.99 10.33 2.98 10.66 4 11 C4 11.66 4 12.32 4 13 C2.68 13 1.36 13 0 13 C0 8.71 0 4.42 0 0 Z " fill="#3130A5" transform="translate(43,82)"/>
<path d="M0 0 C0.99 0.33 1.98 0.66 3 1 C1.25 5.875 1.25 5.875 -1 7 C-1.33 7.99 -1.66 8.98 -2 10 C-2.99 10.33 -3.98 10.66 -5 11 C-5.33 9.68 -5.66 8.36 -6 7 C-5.38125 6.95875 -4.7625 6.9175 -4.125 6.875 C-3.42375 6.58625 -2.7225 6.2975 -2 6 C-0.6954344 3.00384054 -0.6954344 3.00384054 0 0 Z " fill="#7594CB" transform="translate(54,61)"/>
<path d="M0 0 C0.66 1.32 1.32 2.64 2 4 C5.5219721 4.08004482 8.61981469 4.04005702 12 3 C12 3.99 12 4.98 12 6 C9.47524538 7.26237731 7.68799534 7.09856404 4.875 7.0625 C3.96492188 7.05347656 3.05484375 7.04445313 2.1171875 7.03515625 C1.41851562 7.02355469 0.71984375 7.01195312 0 7 C0 4.69 0 2.38 0 0 Z " fill="#719CC0" transform="translate(38,47)"/>
<path d="M0 0 C0.99 0 1.98 0 3 0 C3 4.95 3 9.9 3 15 C2.01 15 1.02 15 0 15 C-0.33 12.36 -0.66 9.72 -1 7 C-0.34 7 0.32 7 1 7 C1.15149298 3.37114676 1.15149298 3.37114676 0 0 Z " fill="#A1A684" transform="translate(94,9)"/>
<path d="M0 0 C0.33 0.66 0.66 1.32 1 2 C-0.21484375 4.6015625 -0.21484375 4.6015625 -1.9375 7.625 C-2.50339844 8.62789062 -3.06929688 9.63078125 -3.65234375 10.6640625 C-4.09707031 11.43492188 -4.54179688 12.20578125 -5 13 C-5.66 13 -6.32 13 -7 13 C-7.33 12.01 -7.66 11.02 -8 10 C-7.34 10 -6.68 10 -6 10 C-5.938125 9.278125 -5.87625 8.55625 -5.8125 7.8125 C-4.75543353 4.15342375 -2.79449929 2.50788398 0 0 Z " fill="#797EAA" transform="translate(95,56)"/>
<path d="M0 0 C-0.33 1.32 -0.66 2.64 -1 4 C-1.95712891 4.07347656 -1.95712891 4.07347656 -2.93359375 4.1484375 C-3.75988281 4.22320312 -4.58617187 4.29796875 -5.4375 4.375 C-6.26121094 4.44460937 -7.08492187 4.51421875 -7.93359375 4.5859375 C-8.95646484 4.79089844 -8.95646484 4.79089844 -10 5 C-10.33 5.66 -10.66 6.32 -11 7 C-11 6.01 -11 5.02 -11 4 C-9.68 4 -8.36 4 -7 4 C-7 3.01 -7 2.02 -7 1 C-4 0 -4 0 0 0 Z " fill="#7FB6B0" transform="translate(49,28)"/>
<path d="M0 0 C0 2.64 0 5.28 0 8 C-0.33 8 -0.66 8 -1 8 C-1 6.35 -1 4.7 -1 3 C-1.99 3 -2.98 3 -4 3 C-4 5.31 -4 7.62 -4 10 C-4.33 10 -4.66 10 -5 10 C-5.33 6.7 -5.66 3.4 -6 0 C-3.50907189 -1.24546405 -2.58919267 -0.7767578 0 0 Z " fill="#303880" transform="translate(76,83)"/>
<path d="M0 0 C0.75 2.125 0.75 2.125 1 5 C-0.9375 8.3125 -0.9375 8.3125 -3 11 C-4.125 7.25 -4.125 7.25 -3 5 C-3.89163577 2.88316159 -3.89163577 2.88316159 -5 1 C-3 0 -3 0 0 0 Z " fill="#A4A59D" transform="translate(85,15)"/>
<path d="M0 0 C-0.33 0.99 -0.66 1.98 -1 3 C-2.32303717 3.3721042 -3.65737935 3.70630173 -5 4 C-5.33 4.66 -5.66 5.32 -6 6 C-6.33 4.68 -6.66 3.36 -7 2 C-7.33 2.99 -7.66 3.98 -8 5 C-7.625 2.5625 -7.625 2.5625 -7 0 C-4.3333581 -1.33332095 -2.83319697 -0.67102033 0 0 Z " fill="#31328A" transform="translate(109,83)"/>
<path d="M0 0 C1.32 0.33 2.64 0.66 4 1 C3.67 2.65 3.34 4.3 3 6 C2.34 6 1.68 6 1 6 C1 6.66 1 7.32 1 8 C0.01 8 -0.98 8 -2 8 C-1.125 2.25 -1.125 2.25 0 0 Z " fill="#9DB18C" transform="translate(70,63)"/>
<path d="M0 0 C2.475 0.495 2.475 0.495 5 1 C4.34 3.31 3.68 5.62 3 8 C2.01 7.67 1.02 7.34 0 7 C0 4.69 0 2.38 0 0 Z " fill="#6AAEBD" transform="translate(54,54)"/>
<path d="M0 0 C0.99 0 1.98 0 3 0 C3 2.64 3 5.28 3 8 C2.67 7.34 2.34 6.68 2 6 C-0.02463255 5.34786708 -0.02463255 5.34786708 -2 5 C-2.33 5.66 -2.66 6.32 -3 7 C-3 3.47190093 -2.35723489 2.53184488 0 0 Z " fill="#939189" transform="translate(94,24)"/>
<path d="M0 0 C2.0625 0.4375 2.0625 0.4375 4 1 C4 1.99 4 2.98 4 4 C5.32 4 6.64 4 8 4 C8 4.66 8 5.32 8 6 C5.36 5.67 2.72 5.34 0 5 C-0.5625 3.0625 -0.5625 3.0625 -1 1 C-0.67 0.67 -0.34 0.34 0 0 Z " fill="#90AC8D" transform="translate(51,22)"/>
<path d="M0 0 C0.66 0.66 1.32 1.32 2 2 C1.01 2.495 1.01 2.495 0 3 C-0.474375 3.804375 -0.94875 4.60875 -1.4375 5.4375 C-3 8 -3 8 -6 10 C-6.33 9.34 -6.66 8.68 -7 8 C-6.34 8 -5.68 8 -5 8 C-4.3185177 6.10820797 -4.3185177 6.10820797 -4 4 C-4.66 3.34 -5.32 2.68 -6 2 C-4.02 1.34 -2.04 0.68 0 0 Z " fill="#9587AB" transform="translate(56,9)"/>
<path d="M0 0 C0.05399736 1.45792884 0.09279177 2.91642712 0.125 4.375 C0.14820313 5.18710937 0.17140625 5.99921875 0.1953125 6.8359375 C0 9 0 9 -2 11 C-2.66 9.68 -3.32 8.36 -4 7 C-3.34 7 -2.68 7 -2 7 C-2 5.35 -2 3.7 -2 2 C-2.66 1.67 -3.32 1.34 -4 1 C-1 0 -1 0 0 0 Z " fill="#78BBB0" transform="translate(60,27)"/>
<path d="M0 0 C2.31 0 4.62 0 7 0 C7 0.99 7 1.98 7 3 C5.35 3.66 3.7 4.32 2 5 C1.34 3.35 0.68 1.7 0 0 Z " fill="#8682B3" transform="translate(39,54)"/>
<path d="M0 0 C2 3 2 3 2 5 C-0.97 5 -3.94 5 -7 5 C-6.34 3.68 -5.68 2.36 -5 1 C-1.125 2.875 -1.125 2.875 0 4 C0 2.68 0 1.36 0 0 Z " fill="#7ABDC5" transform="translate(55,49)"/>
<path d="M0 0 C0.66 0 1.32 0 2 0 C3.32 2.31 4.64 4.62 6 7 C3.0625 6.25 3.0625 6.25 0 5 C-0.9375 2.9375 -0.9375 2.9375 -1 1 C-0.67 0.67 -0.34 0.34 0 0 Z " fill="#8C91A5" transform="translate(88,42)"/>
<path d="M0 0 C3.37503669 1.1858237 5.64722731 2.27573689 8 5 C5.08517222 5.80967438 3.53886783 6.21845993 0.6875 5.0625 C0.130625 4.711875 -0.42625 4.36125 -1 4 C-0.34 3.67 0.32 3.34 1 3 C0.67 2.01 0.34 1.02 0 0 Z " fill="#262A84" transform="translate(59,91)"/>
<path d="M0 0 C1.32 0.33 2.64 0.66 4 1 C3.67 2.98 3.34 4.96 3 7 C2.01 7.33 1.02 7.66 0 8 C0 5.36 0 2.72 0 0 Z " fill="#5EBCCB" transform="translate(39,37)"/>
<path d="M0 0 C2.125 0.9375 2.125 0.9375 4 2 C4 2.66 4 3.32 4 4 C2.02 4.66 0.04 5.32 -2 6 C-2.33 5.34 -2.66 4.68 -3 4 C-2.67 3.01 -2.34 2.02 -2 1 C-1.34 0.67 -0.68 0.34 0 0 Z " fill="#B4BF9B" transform="translate(81,36)"/>
<path d="M0 0 C2.31 0 4.62 0 7 0 C6.67 1.65 6.34 3.3 6 5 C4.68 5 3.36 5 2 5 C1.34 3.35 0.68 1.7 0 0 Z " fill="#242583" transform="translate(88,82)"/>
<path d="M0 0 C0.99 0.33 1.98 0.66 3 1 C3 1.66 3 2.32 3 3 C3.99 3 4.98 3 6 3 C5.67 4.32 5.34 5.64 5 7 C3.68 7 2.36 7 1 7 C1.020625 6.21625 1.04125 5.4325 1.0625 4.625 C1.18684063 2.01885039 1.18684063 2.01885039 0 0 Z " fill="#64ACAF" transform="translate(64,70)"/>
<path d="M0 0 C5.53846154 -0.36923077 5.53846154 -0.36923077 7.875 1.5 C8.24625 1.995 8.6175 2.49 9 3 C6.75 3.75 6.75 3.75 4 4 C1.6875 2.0625 1.6875 2.0625 0 0 Z " fill="#88A7A0" transform="translate(58,54)"/>
<path d="M0 0 C0.33 0 0.66 0 1 0 C1 2.97 1 5.94 1 9 C-0.65 8.01 -2.3 7.02 -4 6 C-3.67 5.34 -3.34 4.68 -3 4 C-2.34 4.33 -1.68 4.66 -1 5 C-0.67 3.35 -0.34 1.7 0 0 Z " fill="#938AB6" transform="translate(95,44)"/>
<path d="M0 0 C1.98 0.66 3.96 1.32 6 2 C6 2.66 6 3.32 6 4 C4.35 4.33 2.7 4.66 1 5 C0.67 3.35 0.34 1.7 0 0 Z " fill="#9592B4" transform="translate(46,55)"/>
<path d="M0 0 C0 0.99 0 1.98 0 3 C-1.98 3.66 -3.96 4.32 -6 5 C-6 4.01 -6 3.02 -6 2 C-4.02 1.34 -2.04 0.68 0 0 Z " fill="#5FBEC5" transform="translate(78,68)"/>
<path d="M0 0 C0.66 0.33 1.32 0.66 2 1 C1.34 2.98 0.68 4.96 0 7 C-1.65 6.67 -3.3 6.34 -5 6 C-4.01 5.67 -3.02 5.34 -2 5 C-1.33820153 3.01954441 -1.33820153 3.01954441 -1 1 C-0.67 0.67 -0.34 0.34 0 0 Z " fill="#739AC0" transform="translate(88,62)"/>
<path d="M0 0 C1.32 0.33 2.64 0.66 4 1 C4 3.31 4 5.62 4 8 C3.34 7.67 2.68 7.34 2 7 C1.26924352 4.6859378 0.59861742 2.35171131 0 0 Z " fill="#A096A8" transform="translate(92,29)"/>
<path d="M0 0 C0.66 0 1.32 0 2 0 C2.66 1.32 3.32 2.64 4 4 C2.35 4.66 0.7 5.32 -1 6 C-1.33 4.68 -1.66 3.36 -2 2 C-1.34 2 -0.68 2 0 2 C0 1.34 0 0.68 0 0 Z " fill="#7DB3BA" transform="translate(63,58)"/>
<path d="M0 0 C0.66 0.99 1.32 1.98 2 3 C1.01 4.485 1.01 4.485 0 6 C-0.66 5.34 -1.32 4.68 -2 4 C-2.66 4 -3.32 4 -4 4 C-4 3.01 -4 2.02 -4 1 C-2.68 0.67 -1.36 0.34 0 0 Z " fill="#74B6C9" transform="translate(49,38)"/>
<path d="M0 0 C2 1 4 2 6 3 C6 3.66 6 4.32 6 5 C4.02 5.33 2.04 5.66 0 6 C0 4.02 0 2.04 0 0 Z " fill="#96909C" transform="translate(76,29)"/>
<path d="M0 0 C0.99 0 1.98 0 3 0 C3 1.65 3 3.3 3 5 C1.35 4.67 -0.3 4.34 -2 4 C-1.34 2.68 -0.68 1.36 0 0 Z " fill="#88A662" transform="translate(57,22)"/>
<path d="M0 0 C1.65 0 3.3 0 5 0 C5.33 0.99 5.66 1.98 6 3 C5.67 3.66 5.34 4.32 5 5 C4.34 5 3.68 5 3 5 C3 4.01 3 3.02 3 2 C2.01 2 1.02 2 0 2 C0 1.34 0 0.68 0 0 Z " fill="#74B3A8" transform="translate(67,71)"/>
<path d="M0 0 C1.32 0.33 2.64 0.66 4 1 C3.34 3.64 2.68 6.28 2 9 C0.14223235 5.86501708 -0.20140476 3.62528568 0 0 Z " fill="#998FA6" transform="translate(77,10)"/>
<path d="" fill="#FFFF00" transform="translate(0,0)"/>
<path d="" fill="#FFFFFF" transform="translate(0,0)"/>
<path d="" fill="#FFFFFF" transform="translate(0,0)"/>
<path d="" fill="#FFFFFF" transform="translate(0,0)"/>
<path d="" fill="#FFFFFF" transform="translate(0,0)"/>
<path d="" fill="#FFFFFF" transform="translate(0,0)"/>
<path d="" fill="#FFFFFF" transform="translate(0,0)"/>
<path d="" fill="#FFFFFF" transform="translate(0,0)"/>
<path d="" fill="#FFFFFF" transform="translate(0,0)"/>
<path d="" fill="#FFFFFF" transform="translate(0,0)"/>
<path d="" fill="#FFFFFF" transform="translate(0,0)"/>
<path d="" fill="#FFFFFF" transform="translate(0,0)"/>
<path d="" fill="#FFFFFF" transform="translate(0,0)"/>
<path d="" fill="#FFFFFF" transform="translate(0,0)"/>
<path d="" fill="#FFFFFF" transform="translate(0,0)"/>
<path d="" fill="#FFFFFF" transform="translate(0,0)"/>
<path d="" fill="#FFFFFF" transform="translate(0,0)"/>
<path d="" fill="#FFFFFF" transform="translate(0,0)"/>
<path d="" fill="#FFFFFF" transform="translate(0,0)"/>
<path d="" fill="#FFFFFF" transform="translate(0,0)"/>
<path d="" fill="#FFFFFF" transform="translate(0,0)"/>
<path d="" fill="#FFFFFF" transform="translate(0,0)"/>
<path d="" fill="#FFFFFF" transform="translate(0,0)"/>
<path d="" fill="#FFFFFF" transform="translate(0,0)"/>
<path d="" fill="#FFFFFF" transform="translate(0,0)"/>
<path d="" fill="#FFFFFF" transform="translate(0,0)"/>
<path d="" fill="#FFFFFF" transform="translate(0,0)"/>
<path d="" fill="#FFFFFF" transform="translate(0,0)"/>
<path d="" fill="#FFFFFF" transform="translate(0,0)"/>
<path d="" fill="#FFFFFF" transform="translate(0,0)"/>
<path d="" fill="#FFFFFF" transform="translate(0,0)"/>
<path d="" fill="#FFFFFF" transform="translate(0,0)"/>
<path d="" fill="#FFFFFF" transform="translate(0,0)"/>
<path d="" fill="#FFFFFF" transform="translate(0,0)"/>
<path d="" fill="#FFFFFF" transform="translate(0,0)"/>
<path d="" fill="#FFFFFF" transform="translate(0,0)"/>
<path d="" fill="#FFFFFF" transform="translate(0,0)"/>
<path d="" fill="#FFFFFF" transform="translate(0,0)"/>
<path d="" fill="#FFFFFF" transform="translate(0,0)"/>
<path d="" fill="#FFFFFF" transform="translate(0,0)"/>
<path d="" fill="#FFFFFF" transform="translate(0,0)"/>
<path d="" fill="#FFFFFF" transform="translate(0,0)"/>
<path d="" fill="#FFFF00" transform="translate(0,0)"/>
<path d="" fill="#FFFFFF" transform="translate(0,0)"/>
<path d="" fill="#FFFFFF" transform="translate(0,0)"/>
<path d="" fill="#FFFFFF" transform="translate(0,0)"/>
<path d="" fill="#FFFFFF" transform="translate(0,0)"/>
<path d="" fill="#FFFFFF" transform="translate(0,0)"/>
<path d="" fill="#FFFFFF" transform="translate(0,0)"/>
<path d="" fill="#FFFFFF" transform="translate(0,0)"/>
<path d="" fill="#FFFFFF" transform="translate(0,0)"/>
<path d="" fill="#FFFFFF" transform="translate(0,0)"/>
<path d="" fill="#FFFFFF" transform="translate(0,0)"/>
<path d="" fill="#FFFFFF" transform="translate(0,0)"/>
<path d="" fill="#FFFFFF" transform="translate(0,0)"/>
<path d="" fill="#FFFFFF" transform="translate(0,0)"/>
<path d="" fill="#FFFFFF" transform="translate(0,0)"/>
</svg>
