<?xml version="1.0" encoding="UTF-8"?>
<svg version="1.1" xmlns="http://www.w3.org/2000/svg" width="855" height="218">
<path d="M0 0 C282.15 0 564.3 0 855 0 C855 71.94 855 143.88 855 218 C572.85 218 290.7 218 0 218 C0 146.06 0 74.12 0 0 Z " fill="#29398F" transform="translate(0,0)"/>
<path d="M0 0 C0.95132813 -0.020625 1.90265625 -0.04125 2.8828125 -0.0625 C9.23477937 -0.0973053 14.38213397 0.83056881 20.25 3.25 C20.94327393 3.53415771 21.63654785 3.81831543 22.35083008 4.11108398 C23.99296665 4.80288638 25.62310069 5.52308754 27.25 6.25 C27.25 6.91 27.25 7.57 27.25 8.25 C27.95125 8.476875 28.6525 8.70375 29.375 8.9375 C37.58339058 12.68480874 43.79682596 20.61550133 47.35546875 28.7890625 C47.83377105 30.24096491 48.281271 31.70386299 48.6796875 33.1796875 C49.19392905 35.31030308 49.19392905 35.31030308 50.3125 37.36328125 C51.73246882 41.73560192 51.45885015 45.99911663 51.375 50.5625 C51.36597656 51.49384766 51.35695313 52.42519531 51.34765625 53.38476562 C51.32418263 55.6734436 51.29134729 57.96158672 51.25 60.25 C50.59 60.25 49.93 60.25 49.25 60.25 C49.1571875 61.920625 49.1571875 61.920625 49.0625 63.625 C47.73904783 74.0104233 41.14055874 82.34936774 33.125 88.625 C30.52371215 90.57857762 28.45362851 91.637751 25.25 92.25 C25.25 92.91 25.25 93.57 25.25 94.25 C23.52255984 94.90043719 21.7929631 95.54514844 20.0625 96.1875 C19.09957031 96.54714844 18.13664063 96.90679687 17.14453125 97.27734375 C11.20427603 99.2734619 5.71725071 99.43290144 -0.5 99.4375 C-1.3559375 99.44974609 -2.211875 99.46199219 -3.09375 99.47460938 C-22.960473 99.51976102 -37.94711321 87.51511198 -51.75 74.25 C-58.39444444 67.31666667 -58.39444444 67.31666667 -59.75 63.25 C-60.265625 62.734375 -60.78125 62.21875 -61.3125 61.6875 C-61.786875 61.213125 -62.26125 60.73875 -62.75 60.25 C-62.75 59.59 -62.75 58.93 -62.75 58.25 C-63.41 58.25 -64.07 58.25 -64.75 58.25 C-68.79923282 51.99209473 -68.79923282 51.99209473 -68.58984375 48.8359375 C-65.7404136 40.06234328 -57.31208676 31.54028435 -50.75 25.25 C-49.76 24.92 -48.77 24.59 -47.75 24.25 C-47.06636776 22.92528524 -46.40218799 21.59047494 -45.75 20.25 C-33.20951926 6.88267438 -18.06903179 0.09636817 0 0 Z " fill="#2A3A8F" transform="translate(772.75,57.75)"/>
<path d="M0 0 C1.03447266 0.81404297 1.03447266 0.81404297 2.08984375 1.64453125 C2.85167969 2.21816406 3.61351562 2.79179688 4.3984375 3.3828125 C13.92898734 10.74802142 23.78909193 18.99484189 31.08984375 28.64453125 C31.73050781 29.45921875 32.37117187 30.27390625 33.03125 31.11328125 C33.68996094 31.98984375 34.34867188 32.86640625 35.02734375 33.76953125 C35.63449219 34.57648438 36.24164062 35.3834375 36.8671875 36.21484375 C38.35637846 39.17419448 38.06679415 40.54257575 37.08984375 43.64453125 C36.42984375 43.64453125 35.76984375 43.64453125 35.08984375 43.64453125 C34.82816406 44.22460938 34.56648437 44.8046875 34.296875 45.40234375 C33.01932955 47.7755188 31.58398428 49.52461555 29.77734375 51.51953125 C27.53666846 54.01228252 25.36497264 56.52256878 23.27734375 59.14453125 C22.55546875 59.96953125 21.83359375 60.79453125 21.08984375 61.64453125 C20.42984375 61.64453125 19.76984375 61.64453125 19.08984375 61.64453125 C18.76306641 62.48564453 18.76306641 62.48564453 18.4296875 63.34375 C12.40483899 73.68962689 -3.89415127 82.94957958 -14.91015625 86.64453125 C-15.90015625 86.64453125 -16.89015625 86.64453125 -17.91015625 86.64453125 C-17.91015625 87.30453125 -17.91015625 87.96453125 -17.91015625 88.64453125 C-22.47555871 89.94236649 -26.882153 89.82857667 -31.59765625 89.83203125 C-32.45810547 89.84427734 -33.31855469 89.85652344 -34.20507812 89.86914062 C-47.96375856 89.9002454 -57.73874414 85.26152275 -67.8125 75.8984375 C-71.55858324 71.8733164 -74.28583265 67.45687652 -76.91015625 62.64453125 C-77.67392578 61.32388672 -77.67392578 61.32388672 -78.453125 59.9765625 C-83.43294126 50.08667531 -83.81403608 37.3708811 -81 26.69140625 C-80.08826353 23.93332173 -79.11315449 21.28683095 -77.91015625 18.64453125 C-77.25015625 18.64453125 -76.59015625 18.64453125 -75.91015625 18.64453125 C-75.80574219 17.90847656 -75.70132813 17.17242187 -75.59375 16.4140625 C-73.48471785 7.8694694 -64.91473904 1.31086434 -57.91015625 -3.35546875 C-39.91451128 -13.09002569 -16.72288699 -12.30082004 0 0 Z " fill="#2A3A8F" transform="translate(657.91015625,67.35546875)"/>
<path d="M0 0 C0.82781982 -0.02126953 1.65563965 -0.04253906 2.50854492 -0.06445312 C9.9215892 -0.1067228 17.54804594 1.6207024 23.5 6.25 C27.99583808 10.74583808 28.87169311 13.82272747 29.0625 20.1875 C28.78042073 27.18751979 27.65778651 31.91637387 22.81640625 37.02734375 C19.80975069 39.77536227 17.55597105 41.47616342 13.5 42.25 C14.28503906 42.39695313 15.07007813 42.54390625 15.87890625 42.6953125 C22.69917838 44.15141968 28.10622746 45.58434594 32.5 51.25 C35.80654836 56.78073736 36.3885379 62.9423573 35.5 69.25 C33.85942467 74.55032028 31.38176095 79.23884702 27.5 83.25 C26.84 83.25 26.18 83.25 25.5 83.25 C25.5 83.91 25.5 84.57 25.5 85.25 C24.29731319 85.90628849 23.08747446 86.54947505 21.875 87.1875 C20.86566406 87.72697266 20.86566406 87.72697266 19.8359375 88.27734375 C13.65627125 90.85048237 6.98390425 90.38093368 0.4140625 90.34765625 C-0.64285797 90.3462413 -1.69977844 90.34482635 -2.78872681 90.34336853 C-6.15084716 90.3377894 -9.51289991 90.32524069 -12.875 90.3125 C-15.16015529 90.30748231 -17.44531162 90.30291987 -19.73046875 90.29882812 C-25.3203354 90.28782679 -30.91016287 90.27110944 -36.5 90.25 C-36.5 88.27 -36.5 86.29 -36.5 84.25 C-33.5 83.25 -33.5 83.25 -26.5 83.25 C-26.5 58.5 -26.5 33.75 -26.5 8.25 C-28.81 8.25 -31.12 8.25 -33.5 8.25 C-34.49 7.92 -35.48 7.59 -36.5 7.25 C-36.5 5.27 -36.5 3.29 -36.5 1.25 C-24.34002026 0.68097046 -12.17331161 0.15134568 0 0 Z " fill="#768DCE" transform="translate(222.5,60.75)"/>
<path d="M0 0 C2.6717741 2.31889827 5.15800462 4.76014455 7.60546875 7.3125 C9.91290712 9.60915595 12.43000615 11.61249176 14.9921875 13.6171875 C16.27734375 14.9765625 16.27734375 14.9765625 16.27734375 17.9765625 C17.76234375 18.4715625 17.76234375 18.4715625 19.27734375 18.9765625 C21.03125 21.0078125 21.03125 21.0078125 22.83984375 23.4765625 C25.10883775 26.7548772 25.10883775 26.7548772 28.27734375 28.9765625 C28.54417969 28.40164062 28.81101562 27.82671875 29.0859375 27.234375 C37.08190513 12.08136093 53.15626518 -3.12972191 68.27734375 -11.0234375 C68.97601562 -11.39984375 69.6746875 -11.77625 70.39453125 -12.1640625 C80.52109568 -17.44406107 89.43506409 -19.19592444 100.83984375 -19.1484375 C101.77248047 -19.15230469 102.70511719 -19.15617187 103.66601562 -19.16015625 C105.02243164 -19.15822266 105.02243164 -19.15822266 106.40625 -19.15625 C107.6293689 -19.15455811 107.6293689 -19.15455811 108.87719727 -19.15283203 C111.42316202 -19.01557628 113.79208584 -18.58001589 116.27734375 -18.0234375 C116.27734375 -17.3634375 116.27734375 -16.7034375 116.27734375 -16.0234375 C117.45296875 -15.9409375 118.62859375 -15.8584375 119.83984375 -15.7734375 C124.3208058 -15.17910397 127.59008416 -13.57993748 131.27734375 -11.0234375 C132.71013672 -10.04117188 132.71013672 -10.04117188 134.171875 -9.0390625 C140.32339019 -4.63970515 145.26597016 -0.45571025 149.27734375 5.9765625 C150.20546875 7.36875 150.20546875 7.36875 151.15234375 8.7890625 C152.27734375 10.9765625 152.27734375 10.9765625 152.27734375 13.9765625 C152.93734375 13.9765625 153.59734375 13.9765625 154.27734375 13.9765625 C155.41498726 18.24272566 156.27734375 21.54142561 156.27734375 25.9765625 C156.93734375 25.9765625 157.59734375 25.9765625 158.27734375 25.9765625 C158.89651233 48.77784236 158.89651233 48.77784236 155.27734375 57.9765625 C154.61734375 57.9765625 153.95734375 57.9765625 153.27734375 57.9765625 C153.11234375 58.9046875 152.94734375 59.8328125 152.77734375 60.7890625 C149.20958454 73.11404887 137.40250358 82.68597725 126.71875 88.85546875 C123.1715774 90.48433041 120.16078504 90.83273134 116.27734375 90.9765625 C116.27734375 91.6365625 116.27734375 92.2965625 116.27734375 92.9765625 C111.34588565 94.26569885 106.45968063 94.12377628 101.40234375 94.1015625 C100.09330078 94.10736328 100.09330078 94.10736328 98.7578125 94.11328125 C92.50804951 94.10388311 86.28789462 94.00520385 80.40234375 91.6640625 C79.74492188 91.40367187 79.0875 91.14328125 78.41015625 90.875 C74.6726946 89.30061139 70.96721852 87.65921373 67.27734375 85.9765625 C67.27734375 85.3165625 67.27734375 84.6565625 67.27734375 83.9765625 C66.39304687 83.72648437 65.50875 83.47640625 64.59765625 83.21875 C52.23738645 78.59455494 39.49964282 63.69043662 32.27734375 52.9765625 C31.86742187 52.3990625 31.4575 51.8215625 31.03515625 51.2265625 C28.27734375 47.27052802 28.27734375 47.27052802 28.27734375 44.9765625 C24.78259156 48.42121071 21.44233257 51.95802264 18.15234375 55.6015625 C5.71605809 69.18947305 -7.22366447 81.75796278 -24.41015625 89.1015625 C-26.53479012 90.01481542 -28.59595039 90.90602522 -30.6171875 92.03125 C-41.2043252 96.78465876 -57.12908802 94.60358023 -67.71484375 90.94140625 C-81.11780981 85.74399672 -90.82658355 76.6271283 -97.72265625 63.9765625 C-98.59765625 60.4140625 -98.59765625 60.4140625 -98.72265625 57.9765625 C-99.38265625 57.9765625 -100.04265625 57.9765625 -100.72265625 57.9765625 C-103.4087117 50.62195897 -104.11307275 44.14563714 -103.91015625 36.3515625 C-103.89662109 35.34738281 -103.88308594 34.34320313 -103.86914062 33.30859375 C-103.83421777 30.86399386 -103.78518373 28.42058516 -103.72265625 25.9765625 C-103.06265625 25.9765625 -102.40265625 25.9765625 -101.72265625 25.9765625 C-101.70203125 24.9453125 -101.68140625 23.9140625 -101.66015625 22.8515625 C-100.32694195 12.16680216 -93.28346051 1.39320128 -85.0078125 -5.1796875 C-77.54622465 -10.7489147 -77.54622465 -10.7489147 -73.72265625 -12.0234375 C-73.39265625 -12.6834375 -73.06265625 -13.3434375 -72.72265625 -14.0234375 C-70.28125 -15.05859375 -70.28125 -15.05859375 -67.16015625 -16.0859375 C-66.14824219 -16.42753906 -65.13632812 -16.76914062 -64.09375 -17.12109375 C-39.44798586 -23.718048 -19.09913066 -15.62930439 0 0 Z M-83.72265625 2.9765625 C-88.80670187 8.84789667 -88.80670187 8.84789667 -90.72265625 15.9765625 C-91.38265625 15.9765625 -92.04265625 15.9765625 -92.72265625 15.9765625 C-97.75418929 27.02796542 -98.76174831 39.73899148 -95.83984375 51.54296875 C-94.66613475 54.5238787 -93.32572895 57.20466717 -91.72265625 59.9765625 C-91.20316406 60.92917969 -90.68367187 61.88179688 -90.1484375 62.86328125 C-84.87504864 71.87352376 -77.99402222 78.2534138 -68.72265625 82.9765625 C-67.71203125 83.5334375 -66.70140625 84.0903125 -65.66015625 84.6640625 C-59.53275253 87.40183863 -53.18480136 87.13032733 -46.59765625 87.1015625 C-45.70433594 87.10542969 -44.81101562 87.10929687 -43.890625 87.11328125 C-42.59705078 87.11134766 -42.59705078 87.11134766 -41.27734375 87.109375 C-40.10921143 87.10768311 -40.10921143 87.10768311 -38.91748047 87.10595703 C-36.73418978 86.97724245 -34.82067702 86.57795929 -32.72265625 85.9765625 C-32.72265625 85.3165625 -32.72265625 84.6565625 -32.72265625 83.9765625 C-30.83546875 83.698125 -30.83546875 83.698125 -28.91015625 83.4140625 C-18.7634475 81.13980019 -10.52029138 73.49221355 -2.72265625 66.9765625 C-2.00335937 66.39261719 -1.2840625 65.80867188 -0.54296875 65.20703125 C1.10584083 63.84626671 2.69859835 62.41802569 4.27734375 60.9765625 C4.27734375 60.3165625 4.27734375 59.6565625 4.27734375 58.9765625 C4.84324219 58.74710937 5.40914062 58.51765625 5.9921875 58.28125 C8.88056802 56.63215753 10.64975412 54.59922817 12.83984375 52.1015625 C13.60425781 51.23789063 14.36867188 50.37421875 15.15625 49.484375 C18.82719893 45.70040585 18.82719893 45.70040585 20.27734375 40.9765625 C20.93734375 40.9765625 21.59734375 40.9765625 22.27734375 40.9765625 C23.23663039 37.90793535 23.54470134 36.51567502 22.08984375 33.58203125 C21.49171875 32.78410156 20.89359375 31.98617187 20.27734375 31.1640625 C19.3028125 29.86082031 19.3028125 29.86082031 18.30859375 28.53125 C15.41567658 24.89285033 12.44814668 21.37589177 9.27734375 17.9765625 C8.74625 17.40421875 8.21515625 16.831875 7.66796875 16.2421875 C2.61667278 10.9984612 -3.02216935 6.49082091 -8.72265625 1.9765625 C-9.4496875 1.39390625 -10.17671875 0.81125 -10.92578125 0.2109375 C-15.28449019 -3.18679624 -19.63732485 -5.85679983 -24.72265625 -8.0234375 C-25.53734375 -8.39726563 -26.35203125 -8.77109375 -27.19140625 -9.15625 C-46.48869983 -16.90769096 -69.4432347 -12.20366369 -83.72265625 2.9765625 Z M52.27734375 9.9765625 C52.27734375 10.6365625 52.27734375 11.2965625 52.27734375 11.9765625 C51.43623047 12.31880859 51.43623047 12.31880859 50.578125 12.66796875 C42.72098965 17.13679785 34.94531733 27.80638308 31.27734375 35.9765625 C31.67202136 39.6579519 33.57625955 42.72231446 35.27734375 45.9765625 C35.93734375 45.9765625 36.59734375 45.9765625 37.27734375 45.9765625 C37.40109375 46.6159375 37.52484375 47.2553125 37.65234375 47.9140625 C37.85859375 48.5946875 38.06484375 49.2753125 38.27734375 49.9765625 C38.93734375 50.3065625 39.59734375 50.6365625 40.27734375 50.9765625 C40.66921875 51.6571875 41.06109375 52.3378125 41.46484375 53.0390625 C50.29220227 67.34547113 67.3861428 80.65086272 83.27734375 85.9765625 C96.25880143 88.81268742 109.99615556 87.88509518 122.27734375 82.9765625 C123.26734375 82.6465625 124.25734375 82.3165625 125.27734375 81.9765625 C125.27734375 81.3165625 125.27734375 80.6565625 125.27734375 79.9765625 C126.14359375 79.7496875 127.00984375 79.5228125 127.90234375 79.2890625 C131.75113799 77.79230918 134.35837258 75.8084002 137.27734375 72.9765625 C137.85742188 72.43257813 138.4375 71.88859375 139.03515625 71.328125 C145.09524432 65.11063204 149.27734375 56.74739983 149.27734375 47.9765625 C149.93734375 47.9765625 150.59734375 47.9765625 151.27734375 47.9765625 C151.77059134 34.11082469 152.19913613 21.52241146 143.27734375 9.9765625 C142.84679687 9.34234375 142.41625 8.708125 141.97265625 8.0546875 C138.47761536 3.02938546 134.56821487 -0.87751413 129.27734375 -4.0234375 C128.61734375 -4.0234375 127.95734375 -4.0234375 127.27734375 -4.0234375 C127.27734375 -4.6834375 127.27734375 -5.3434375 127.27734375 -6.0234375 C125.55132996 -6.84261392 123.82137905 -7.65349766 122.08984375 -8.4609375 C121.12691406 -8.91339844 120.16398437 -9.36585937 119.171875 -9.83203125 C95.53642167 -19.56052419 68.41573062 -7.7389849 52.27734375 9.9765625 Z " fill="#ECEFF8" transform="translate(672.72265625,70.0234375)"/>
<path d="M0 0 C2.57575061 3.86362592 2.26624186 7.03341179 2.22705078 11.51049805 C2.22734283 12.37900391 2.22763489 13.24750977 2.22793579 14.14233398 C2.22654147 17.01556356 2.21097544 19.88853442 2.1953125 22.76171875 C2.19158273 24.75283161 2.18873559 26.7439463 2.18673706 28.73506165 C2.17909775 33.97776347 2.15944666 39.22035462 2.1373291 44.4630127 C2.11687712 49.81191511 2.10773673 55.16083539 2.09765625 60.50976562 C2.07620108 71.00655906 2.0420615 81.50327033 2 92 C4.31 92 6.62 92 9 92 C9 93.98 9 95.96 9 98 C5.16275828 98.90413673 1.62497726 99.10576898 -2.3125 99.0625 C-3.38113281 99.05347656 -4.44976563 99.04445313 -5.55078125 99.03515625 C-6.76314453 99.01775391 -6.76314453 99.01775391 -8 99 C-8.66 96.36 -9.32 93.72 -10 91 C-10.50789062 91.40992188 -11.01578125 91.81984375 -11.5390625 92.2421875 C-12.22742188 92.78101563 -12.91578125 93.31984375 -13.625 93.875 C-14.29789063 94.40867187 -14.97078125 94.94234375 -15.6640625 95.4921875 C-22.25386672 99.74580694 -29.40993606 99.73392295 -37 99 C-44.46769703 96.97875947 -48.42105015 91.59210872 -52.75 85.5625 C-57.36953917 76.0924447 -57.58418945 63.43718441 -54.6875 53.375 C-53.40859274 49.76969953 -51.85207186 46.35136813 -50 43 C-49.34 43 -48.68 43 -48 43 C-47.74476563 42.40316406 -47.48953125 41.80632812 -47.2265625 41.19140625 C-44.38387241 36.11258733 -38.01679287 32.30417628 -32.6171875 30.4609375 C-25.6537667 29.23454399 -16.69966918 28.76677694 -10 31 C-10 23.41 -10 15.82 -10 8 C-12.97 8 -15.94 8 -19 8 C-19.99 7.67 -20.98 7.34 -22 7 C-22 5.35 -22 3.7 -22 2 C-5.76300085 -0.5541347 -5.76300085 -0.5541347 0 0 Z " fill="#778ECF" transform="translate(552,53)"/>
<path d="M0 0 C0.6909375 -0.01224609 1.381875 -0.02449219 2.09375 -0.03710938 C9.3696843 -0.05762423 15.55340422 1.46053755 21.25 6.1875 C28.37183299 14.83792153 30.77601482 23.63119391 30.6875 34.6875 C30.7174707 36.01587891 30.7174707 36.01587891 30.74804688 37.37109375 C30.74086455 47.15341724 26.80320302 55.02433297 20.25 62.1875 C12.79773109 68.81547732 4.90339592 69.74930327 -4.76171875 69.4921875 C-12.0859582 68.93264717 -17.3976955 66.98473539 -22.5625 61.6875 C-28.84339561 53.54614953 -31.17968581 45.66188664 -31.25 35.5 C-31.25636475 34.7164917 -31.26272949 33.9329834 -31.26928711 33.12573242 C-31.05942922 23.47125591 -27.87260168 15.88268524 -21.5 8.625 C-14.75791988 2.64906535 -9.03851994 0.00824682 0 0 Z " fill="#768DCD" transform="translate(298.75,82.8125)"/>
<path d="M0 0 C10.56 0 21.12 0 32 0 C32 1.98 32 3.96 32 6 C28.52674819 7.1577506 25.63932552 7.06866652 22 7 C22.06745431 14.32860689 22.15743429 21.65669923 22.26245117 28.98486328 C22.29553064 31.47340766 22.32361435 33.962024 22.34643555 36.45068359 C22.38029508 40.04555692 22.43262602 43.63978069 22.48828125 47.234375 C22.49467117 48.33174988 22.5010611 49.42912476 22.50764465 50.55975342 C22.70297863 61.02202233 23.77485333 70.5645673 31.0859375 78.4765625 C36.97123709 83.16078054 43.851093 82.52136652 51 82 C54.8798977 81.42596879 57.18711328 80.02083448 59.6796875 76.890625 C65.72020287 67.58418505 66.30118324 58.40228136 66.4140625 47.52734375 C66.43342865 46.3636879 66.4527948 45.20003204 66.4727478 44.00111389 C66.53214921 40.31331531 66.57877077 36.62548485 66.625 32.9375 C66.66321607 30.42511719 66.70226988 27.91274698 66.7421875 25.40039062 C66.83781809 19.26703953 66.92297916 13.13361152 67 7 C65.906875 7.020625 64.81375 7.04125 63.6875 7.0625 C60 7 60 7 57 6 C57 4.02 57 2.04 57 0 C66.24 0 75.48 0 85 0 C85 1.98 85 3.96 85 6 C80.545 6.495 80.545 6.495 76 7 C76.00999275 7.95934196 76.00999275 7.95934196 76.02018738 8.93806458 C76.08693448 15.63858984 76.131963 22.33901952 76.16479492 29.03979492 C76.17981335 31.5352767 76.20023414 34.0307324 76.22631836 36.52612305 C76.26300775 40.12815825 76.27979647 43.72984224 76.29296875 47.33203125 C76.30845261 48.43456741 76.32393646 49.53710358 76.33988953 50.67304993 C76.34243136 62.56675601 73.73321646 73.37340234 65.66796875 82.39453125 C58.568503 89.22797487 49.43604541 90.3786671 39.99389648 90.29321289 C30.18410715 90.05654592 22.89198825 87.13287327 16 80 C9.37051439 70.24126815 8.7003211 59.78131214 8.8046875 48.30859375 C8.8075174 47.12274185 8.81034729 45.93688995 8.81326294 44.71510315 C8.82439006 40.95579616 8.84948102 37.19673407 8.875 33.4375 C8.88503944 30.87695658 8.8941636 28.31640941 8.90234375 25.75585938 C8.92430492 19.50382376 8.95770766 13.25192939 9 7 C6.03 6.67 3.06 6.34 0 6 C0 4.02 0 2.04 0 0 Z " fill="#EDEEF1" transform="translate(14,62)"/>
<path d="M0 0 C2.04698414 2.04698414 1.70045693 6.30411241 2 9 C2.9075 8.2575 3.815 7.515 4.75 6.75 C13.00845981 0.91756661 23.00744049 -1.41717921 33 0 C36.99395132 1.28094295 39.49832573 3.44409068 42.3125 6.5625 C47.57998062 17.29255312 46.23386391 30.04419675 46.125 41.6875 C46.11494984 43.56444835 46.10582759 45.44140191 46.09765625 47.31835938 C46.07580469 51.87903673 46.0413871 56.4394598 46 61 C48.64 61.33 51.28 61.66 54 62 C54 63.98 54 65.96 54 68 C44.43 68 34.86 68 25 68 C25 66.02 25 64.04 25 62 C27.64 61.67 30.28 61.34 33 61 C32.93100476 54.98559745 32.84297938 48.97188223 32.73754883 42.95800781 C32.70435859 40.9134892 32.67630837 38.86888026 32.65356445 36.82421875 C32.61991007 33.87981794 32.56758834 30.93624046 32.51171875 27.9921875 C32.50532883 27.0825827 32.4989389 26.17297791 32.49235535 25.23580933 C32.37257404 20.02899404 31.69650745 16.59298674 29 12 C29 11.34 29 10.68 29 10 C26.71008527 9.86260512 24.4176567 9.7669485 22.125 9.6875 C20.84882813 9.62949219 19.57265625 9.57148437 18.2578125 9.51171875 C12.78762067 9.89286144 12.78762067 9.89286144 4 15 C3.67 30.18 3.34 45.36 3 61 C5.64 61.33 8.28 61.66 11 62 C11 63.98 11 65.96 11 68 C1.43 68 -8.14 68 -18 68 C-18 66.02 -18 64.04 -18 62 C-15.36 61.67 -12.72 61.34 -10 61 C-10 44.17 -10 27.34 -10 10 C-12.97 9.67 -15.94 9.34 -19 9 C-19 6.69 -19 4.38 -19 2 C-5.96330275 -0.39755352 -5.96330275 -0.39755352 0 0 Z " fill="#ECEEF2" transform="translate(123,83)"/>
<path d="M0 0 C2 2 2 2 2.125 5.625 C2.08375 6.73875 2.0425 7.8525 2 9 C2.67482422 8.52820313 2.67482422 8.52820313 3.36328125 8.046875 C13.81460663 1.09328777 24.02552868 -1.76284258 36.5 0.6875 C41.5184457 3.32218399 43.48510305 7.45023995 45.37588501 12.64916992 C46.53300358 17.00764422 46.3648737 21.3628674 46.29296875 25.84375 C46.28872391 26.85344849 46.28447906 27.86314697 46.28010559 28.90344238 C46.26342214 32.10257557 46.22578903 35.30105983 46.1875 38.5 C46.17243982 40.67967835 46.15875375 42.85936665 46.14648438 45.0390625 C46.11355245 50.35962193 46.06184181 55.67970125 46 61 C48.97 61.33 51.94 61.66 55 62 C55 63.98 55 65.96 55 68 C45.43 68 35.86 68 26 68 C26 66.02 26 64.04 26 62 C28.64 61.67 31.28 61.34 34 61 C33.90596407 55.4495864 33.79976197 49.89958344 33.68261719 44.34960938 C33.64449662 42.46425636 33.60961519 40.57883479 33.578125 38.69335938 C33.53210468 35.97240821 33.47417386 33.25192207 33.4140625 30.53125 C33.40251129 29.69758911 33.39096008 28.86392822 33.37905884 28.00500488 C33.23145603 18.87134432 33.23145603 18.87134432 29.22265625 11.03125 C26.48400402 9.76059238 24.45780938 9.53217374 21.4375 9.5 C20.48746094 9.4690625 19.53742188 9.438125 18.55859375 9.40625 C13.56101986 10.08260817 13.56101986 10.08260817 4 15 C3.67 30.18 3.34 45.36 3 61 C5.97 61.33 8.94 61.66 12 62 C12 63.98 12 65.96 12 68 C2.43 68 -7.14 68 -17 68 C-17 66.02 -17 64.04 -17 62 C-14.36 61.67 -11.72 61.34 -9 61 C-9 44.17 -9 27.34 -9 10 C-10.98 10 -12.96 10 -15 10 C-15.99 9.34 -16.98 8.68 -18 8 C-18.1875 4.875 -18.1875 4.875 -18 2 C-5.72097378 -0.48689139 -5.72097378 -0.48689139 0 0 Z " fill="#778ECF" transform="translate(433,83)"/>
<path d="M0 0 C1.35232224 0.00296082 1.35232224 0.00296082 2.73196411 0.00598145 C3.41966888 0.00851929 4.10737366 0.01105713 4.81591797 0.01367188 C4.82804825 0.99299934 4.82804825 0.99299934 4.84042358 1.99211121 C4.92650171 8.78929068 5.02600713 15.58617963 5.13330078 22.38305664 C5.1715764 24.91946533 5.20643173 27.45592804 5.23779297 29.99243164 C5.2834736 33.63903098 5.34146427 37.2852589 5.40185547 40.93164062 C5.41340668 42.0651445 5.42495789 43.19864838 5.43685913 44.36650085 C5.45672882 45.42722305 5.47659851 46.48794525 5.49707031 47.58081055 C5.51039398 48.5112468 5.52371765 49.44168304 5.53744507 50.40031433 C5.84315814 53.26931005 6.55195732 55.42614177 7.81591797 58.01367188 C12.00620039 60.95312372 16.9163644 60.75039307 21.81591797 60.01367188 C24.38431379 58.8984985 26.65019132 57.62021044 29.00341797 56.10742188 C30.81591797 55.01367188 30.81591797 55.01367188 32.81591797 55.01367188 C32.81591797 39.50367187 32.81591797 23.99367187 32.81591797 8.01367188 C29.84591797 7.68367188 26.87591797 7.35367188 23.81591797 7.01367188 C23.81591797 5.03367187 23.81591797 3.05367188 23.81591797 1.01367188 C41.2444894 -1.27204241 41.2444894 -1.27204241 45.81591797 1.01367188 C45.81591797 21.14367187 45.81591797 41.27367188 45.81591797 62.01367188 C48.12591797 62.01367188 50.43591797 62.01367188 52.81591797 62.01367188 C52.81591797 63.99367187 52.81591797 65.97367187 52.81591797 68.01367188 C47.55793293 68.90864805 42.14428007 69.65394349 36.81591797 69.01367188 C34.81591797 67.01367188 34.81591797 67.01367188 34.69091797 63.38867188 C34.73216797 62.27492187 34.77341797 61.16117188 34.81591797 60.01367188 C34.06826172 60.49578125 33.32060547 60.97789062 32.55029297 61.47460938 C31.56544922 62.10625 30.58060547 62.73789063 29.56591797 63.38867188 C28.59138672 64.01515625 27.61685547 64.64164062 26.61279297 65.28710938 C25.22833984 66.14175781 25.22833984 66.14175781 23.81591797 67.01367188 C23.17783203 67.41199219 22.53974609 67.8103125 21.88232422 68.22070312 C16.0860357 70.44498776 7.47990706 70.04591497 1.69091797 67.82617188 C-4.85334872 63.70043853 -6.53563109 58.26081579 -8.18408203 51.01367188 C-8.53773547 47.61309767 -8.53804954 44.26549992 -8.47705078 40.84960938 C-8.47280594 39.93152496 -8.4685611 39.01344055 -8.46418762 38.0675354 C-8.447577 35.17426509 -8.40995978 32.28172677 -8.37158203 29.38867188 C-8.35651236 27.41081745 -8.34282798 25.43295195 -8.33056641 23.45507812 C-8.29773156 18.64099985 -8.24607441 13.82745937 -8.18408203 9.01367188 C-10.16408203 8.35367188 -12.14408203 7.69367188 -14.18408203 7.01367188 C-14.18408203 5.03367187 -14.18408203 3.05367188 -14.18408203 1.01367188 C-9.4089352 0.3975239 -4.81646475 -0.01367343 0 0 Z " fill="#758CCE" transform="translate(354.18408203125,82.986328125)"/>
<path d="M0 0 C4.59651094 1.71704376 7.1119526 4.30943951 9.37890625 8.625 C13.54048972 19.993228 14.40768718 35.57126248 9.37890625 46.8203125 C6.91164632 50.72040043 4.29728843 53.24396519 0 55 C-4.87272368 55.80529607 -9.1795128 55.59363713 -13.875 54.0625 C-20.00692338 48.11092731 -22.05677709 40.87552833 -22.23828125 32.54296875 C-22.26875251 30.42455386 -22.29329867 28.30604702 -22.3125 26.1875 C-22.34150391 25.13240234 -22.37050781 24.07730469 -22.40039062 22.99023438 C-22.46812644 14.62746638 -20.96164859 9.3142258 -15.375 3.0625 C-10.71280594 -0.98624747 -5.96585063 -0.78900589 0 0 Z " fill="#293A8F" transform="translate(304,90)"/>
<path d="M0 0 C0.92425781 -0.02578125 1.84851563 -0.0515625 2.80078125 -0.078125 C6.2611782 0.31520835 8.62403211 1.64253481 11.6875 3.25 C11.8396034 9.72755859 11.9446941 16.20465716 12.01708984 22.68359375 C12.04726762 24.88754484 12.08821558 27.0913758 12.14013672 29.29492188 C12.21290634 32.46254083 12.24694647 35.62857292 12.2734375 38.796875 C12.30440521 39.78242371 12.33537292 40.76797241 12.36727905 41.78338623 C12.36857031 44.40659313 12.31314935 46.70216793 11.6875 49.25 C6.71399905 53.73303606 0.5111274 55.8762587 -6.22265625 55.6953125 C-11.51947451 54.56664468 -15.31787591 50.77509027 -18.1875 46.375 C-22.92534543 33.21431826 -21.65148992 22.34445171 -17.3125 9.25 C-16.6525 9.25 -15.9925 9.25 -15.3125 9.25 C-15.085625 8.6725 -14.85875 8.095 -14.625 7.5 C-11.23789706 1.69353782 -6.3818145 0.10592223 0 0 Z " fill="#2A3B90" transform="translate(530.3125,88.75)"/>
<path d="M0 0 C7.59 0 15.18 0 23 0 C22.67 0.99 22.34 1.98 22 3 C23.32 3.33 24.64 3.66 26 4 C25.01 4.66 24.02 5.32 23 6 C22.73288596 8.55395487 22.65150971 10.86274374 22.70703125 13.4140625 C22.71339851 14.50852188 22.71339851 14.50852188 22.71989441 15.62509155 C22.73670647 17.95876759 22.77436132 20.2915844 22.8125 22.625 C22.82754366 24.20571671 22.84123262 25.78644693 22.85351562 27.3671875 C22.88661799 31.24512344 22.93841596 35.12241598 23 39 C24.65 39.33 26.3 39.66 28 40 C25.25 44.875 25.25 44.875 23 46 C22.67 58.21 22.34 70.42 22 83 C37.02015688 82.27832367 37.02015688 82.27832367 52 81 C52 80.34 52 79.68 52 79 C52.99 79.495 52.99 79.495 54 80 C53 83 53 83 51 85 C51.33 85.99 51.66 86.98 52 88 C48.97363945 88.87942612 46.28656931 89.12180676 43.13964844 89.11352539 C42.17895447 89.11344986 41.2182605 89.11337433 40.22845459 89.11329651 C39.19915833 89.10813522 38.16986206 89.10297394 37.109375 89.09765625 C36.04962463 89.0962413 34.98987427 89.09482635 33.89801025 89.09336853 C30.51531138 89.08777382 27.13267885 89.07522225 23.75 89.0625 C21.45573012 89.05748432 19.16145921 89.05292153 16.8671875 89.04882812 C11.24476906 89.03780611 5.62238927 89.02107321 0 89 C0 87.02 0 85.04 0 83 C3 82 3 82 10 82 C10 57.25 10 32.5 10 7 C7.69 7 5.38 7 3 7 C2.01 6.67 1.02 6.34 0 6 C0 4.02 0 2.04 0 0 Z " fill="#788FCF" transform="translate(186,62)"/>
<path d="M0 0 C25.32467532 -0.50649351 25.32467532 -0.50649351 32.5 4.875 C36.31773171 10.28345325 36.79504747 15.51509475 36 22 C35.02528332 25.21224363 33.89559123 28.21684098 32 31 C31.01 31.33 30.02 31.66 29 32 C29 32.66 29 33.32 29 34 C19.55987992 38.07696703 10.08446876 37.21305216 0 37 C0 24.79 0 12.58 0 0 Z " fill="#2A3B90" transform="translate(208,108)"/>
<path d="M0 0 C5.83551766 0.09511096 10.86521189 0.695492 15.65771484 4.3190918 C19.7009859 9.49953284 20.40126829 14.93692472 19.65771484 21.3190918 C17.9434921 26.62945574 15.41343457 30.27055351 10.65771484 33.3190918 C7.8335972 34.26046435 6.12853453 34.43634562 3.20849609 34.41674805 C2.3609375 34.41352539 1.51337891 34.41030273 0.64013672 34.40698242 C-0.68147461 34.39441406 -0.68147461 34.39441406 -2.02978516 34.3815918 C-2.92246094 34.37708008 -3.81513672 34.37256836 -4.73486328 34.36791992 C-6.93740502 34.35614162 -9.13981115 34.33969344 -11.34228516 34.3190918 C-11.36693804 29.63769926 -11.38512255 24.95634421 -11.3972168 20.27490234 C-11.40225673 18.68114565 -11.40908865 17.08739361 -11.41772461 15.49365234 C-11.42980514 13.20758927 -11.43551671 10.92158713 -11.43994141 8.63549805 C-11.44510269 7.91882462 -11.45026398 7.20215118 -11.45558167 6.46376038 C-11.45577779 4.74845507 -11.40420523 3.03327913 -11.34228516 1.3190918 C-9.05423587 -0.96895748 -3.18942646 0.00897587 0 0 Z " fill="#2A3B90" transform="translate(219.34228515625,66.680908203125)"/>
<path d="M0 0 C0.33 0 0.66 0 1 0 C1.07657284 6.91927943 1.12881775 13.83844806 1.16479492 20.75805664 C1.1798061 23.10803308 1.20022135 25.45798186 1.22631836 27.80786133 C1.26304034 31.20140442 1.27980365 34.5945745 1.29296875 37.98828125 C1.30845261 39.02519608 1.32393646 40.0621109 1.33988953 41.13044739 C1.34254067 52.83290261 -1.4138798 63.53793222 -9.33203125 72.39453125 C-16.431497 79.22797487 -25.56395459 80.3786671 -35.00610352 80.29321289 C-44.79588778 80.05702855 -52.1356822 77.14367957 -59 70 C-62.11602047 65.24435924 -64.04315902 60.6015066 -65 55 C-63.125 55.625 -63.125 55.625 -61 57 C-59.875 60 -59.875 60 -59 63 C-58.34 63.66 -57.68 64.32 -57 65 C-55.45473667 67.66128684 -55 68.84915995 -55 72 C-53.515 71.505 -53.515 71.505 -52 71 C-51.34 71.66 -50.68 72.32 -50 73 C-47.89179203 72.6814823 -47.89179203 72.6814823 -46 72 C-46.33 70.02 -46.66 68.04 -47 66 C-46.29423828 66.52400391 -46.29423828 66.52400391 -45.57421875 67.05859375 C-44.95160156 67.51363281 -44.32898438 67.96867187 -43.6875 68.4375 C-43.07261719 68.88996094 -42.45773438 69.34242188 -41.82421875 69.80859375 C-36.19243397 73.48674012 -28.2030188 72.6121626 -21.80078125 71.6796875 C-16.79665995 70.08286677 -14.61545814 66.05769742 -12.22265625 61.71875 C-10.4778853 57.83900374 -9.67644674 54.19396977 -9 50 C-7.35 50.66 -5.7 51.32 -4 52 C-3.67 50.68 -3.34 49.36 -3 48 C-3 48.99 -3 49.98 -3 51 C-2.34 51 -1.68 51 -1 51 C-0.67 34.17 -0.34 17.34 0 0 Z " fill="#E3E7F1" transform="translate(89,72)"/>
<path d="M0 0 C2.04698414 2.04698414 1.70045693 6.30411241 2 9 C2.48210937 8.6390625 2.96421875 8.278125 3.4609375 7.90625 C4.09257813 7.4421875 4.72421875 6.978125 5.375 6.5 C6.31472656 5.80390625 6.31472656 5.80390625 7.2734375 5.09375 C9 4 9 4 11 4 C10.67 4.99 10.34 5.98 10 7 C11.32 7.66 12.64 8.32 14 9 C12 11 12 11 4 15 C3.67 30.51 3.34 46.02 3 62 C1.515 61.505 1.515 61.505 0 61 C-0.21714255 54.80744434 -0.41398607 48.61470147 -0.59204102 42.42089844 C-0.65547003 40.31395218 -0.72444384 38.20716525 -0.79907227 36.10058594 C-0.905383 33.07251371 -0.99173982 30.04442844 -1.07421875 27.015625 C-1.11157639 26.07382385 -1.14893402 25.13202271 -1.18742371 24.16168213 C-1.20767105 23.28107117 -1.2279184 22.40046021 -1.2487793 21.49316406 C-1.27320602 20.72039124 -1.29763275 19.94761841 -1.32279968 19.15142822 C-0.91496263 16.4332343 0.22632187 15.05413751 2 13 C1.01 13 0.02 13 -1 13 C-3.37859197 11.26179817 -3.94932885 10.19807812 -4.6875 7.3125 C-4.790625 6.549375 -4.89375 5.78625 -5 5 C-5.680625 5.53625 -6.36125 6.0725 -7.0625 6.625 C-10 8 -10 8 -13.8125 7.1875 C-14.864375 6.795625 -15.91625 6.40375 -17 6 C-17.33 6.66 -17.66 7.32 -18 8 C-16.35 8 -14.7 8 -13 8 C-13 8.66 -13 9.32 -13 10 C-15.97 9.505 -15.97 9.505 -19 9 C-19 6.69 -19 4.38 -19 2 C-5.96330275 -0.39755352 -5.96330275 -0.39755352 0 0 Z " fill="#E2E5F0" transform="translate(123,83)"/>
<path d="M0 0 C0.66 0.33 1.32 0.66 2 1 C1.50628906 1.47050781 1.01257813 1.94101563 0.50390625 2.42578125 C-0.45708984 3.35970703 -0.45708984 3.35970703 -1.4375 4.3125 C-2.07558594 4.92738281 -2.71367188 5.54226562 -3.37109375 6.17578125 C-5.2221418 8.00644056 -5.2221418 8.00644056 -6 11 C-5.01 10.67 -4.02 10.34 -3 10 C-3 13 -3 13 -5.0625 15.25 C-6.53476375 16.65235179 -8.02851946 18.02569647 -9.5390625 19.38671875 C-14.80702915 24.34260207 -18.76071638 30.07241019 -22.86328125 35.98828125 C-25 39 -25 39 -27 41 C-27 39.68 -27 38.36 -27 37 C-26.34 37 -25.68 37 -25 37 C-25 35.02 -25 33.04 -25 31 C-26.98 33.475 -26.98 33.475 -29 36 C-30.32 35.67 -31.64 35.34 -33 35 C-32.67 34.34 -32.34 33.68 -32 33 C-31.34 33.33 -30.68 33.66 -30 34 C-29.73316406 33.42507812 -29.46632813 32.85015625 -29.19140625 32.2578125 C-22.50606158 19.58853636 -10.57110175 9.40845943 0 0 Z " fill="#E6E9F6" transform="translate(731,65)"/>
<path d="M0 0 C3.375 0.25 3.375 0.25 7 1 C8.4375 3.0625 8.4375 3.0625 9 5 C10.94999129 4.80528889 10.94999129 4.80528889 13 4 C14.28436734 2.0162233 14.28436734 2.0162233 15 0 C15.66 0.33 16.32 0.66 17 1 C16.67 2.98 16.34 4.96 16 7 C15.34 7 14.68 7 14 7 C14.4259594 12.11151283 15.61149755 15.6521185 18.16015625 20.10546875 C19 22 19 22 19 26 C17.35 26 15.7 26 14 26 C10 19.25 10 19.25 10 17 C9.01 17 8.02 17 7 17 C6.67 17.99 6.34 18.98 6 20 C3.83977445 16.56905354 4.1871115 14.86122038 5 11 C4.34 10.34 3.68 9.68 3 9 C3.0309375 7.7625 3.0309375 7.7625 3.0625 6.5 C3.041875 5.675 3.02125 4.85 3 4 C2.01 3.34 1.02 2.68 0 2 C0 1.34 0 0.68 0 0 Z " fill="#F5F7FA" transform="translate(690,95)"/>
<path d="M0 0 C1.875 0.625 1.875 0.625 4 2 C5.125 5 5.125 5 6 8 C6.66 8.66 7.32 9.32 8 10 C9.54526333 12.66128684 10 13.84915995 10 17 C10.99 16.67 11.98 16.34 13 16 C13.66 16.66 14.32 17.32 15 18 C17.10820797 17.6814823 17.10820797 17.6814823 19 17 C18.67 15.02 18.34 13.04 18 11 C18.70576172 11.50660156 18.70576172 11.50660156 19.42578125 12.0234375 C20.04839844 12.46945313 20.67101562 12.91546875 21.3125 13.375 C21.92738281 13.81585938 22.54226562 14.25671875 23.17578125 14.7109375 C24.7652392 15.83410907 26.38062171 16.92041447 28 18 C26.02 18 24.04 18 22 18 C22.556875 18.268125 23.11375 18.53625 23.6875 18.8125 C26 20 26 20 28.1875 21.5625 C32.03603083 23.52952687 35.73119952 23.73029365 40 24 C40 24.33 40 24.66 40 25 C27.57354161 25.41167408 18.05443735 25.3638811 8.015625 17.09765625 C3.41266707 12.30736863 1.10571492 6.47303946 0 0 Z " fill="#DDE2F1" transform="translate(24,127)"/>
<path d="M0 0 C2.64 0.33 5.28 0.66 8 1 C8.00586624 1.65208939 8.01173248 2.30417877 8.01777649 2.97602844 C8.08206313 9.80664193 8.16657124 16.63679954 8.26245117 23.46704102 C8.29555994 26.01092491 8.32363488 28.55487979 8.34643555 31.09887695 C8.38024032 34.77065072 8.43256984 38.44178217 8.48828125 42.11328125 C8.49467117 43.23769119 8.5010611 44.36210114 8.50764465 45.52058411 C8.62418815 51.88108412 9.37956499 57.47381041 11.26408386 63.55851746 C12.00685402 66.02273896 12.53236237 68.47058494 13 71 C9.05914455 67.45323009 7.16634645 64.4652544 6.8046875 59.10546875 C6.82789063 58.14253906 6.85109375 57.17960937 6.875 56.1875 C6.89304687 55.21167969 6.91109375 54.23585937 6.9296875 53.23046875 C6.95289063 52.49441406 6.97609375 51.75835937 7 51 C6.34 51 5.68 51 5 51 C5 35.49 5 19.98 5 4 C3.02 3.34 1.04 2.68 -1 2 C-0.67 1.34 -0.34 0.68 0 0 Z " fill="#34407D" transform="translate(15,68)"/>
<path d="M0 0 C0.66 0 1.32 0 2 0 C1.67 16.5 1.34 33 1 50 C0.01 49.67 -0.98 49.34 -2 49 C-2.21736795 42.82576043 -2.41416568 36.65133383 -2.59204102 30.47583008 C-2.65541556 28.37571754 -2.72437923 26.27576584 -2.79907227 24.17602539 C-2.90554943 21.15536121 -2.99182121 18.1346864 -3.07421875 15.11328125 C-3.11157639 14.17664139 -3.14893402 13.24000153 -3.18742371 12.27497864 C-3.29954326 7.3990189 -3.36617521 3.88045902 0 0 Z " fill="#D5DEEE" transform="translate(125,95)"/>
<path d="M0 0 C9.21897726 -1.40951305 17.50126066 0.5133377 26 4 C25.625 5.9375 25.625 5.9375 25 8 C22.37684968 9.31157516 20.76966564 8.89649988 17.875 8.5625 C16.50988281 8.40974609 16.50988281 8.40974609 15.1171875 8.25390625 C14.41851563 8.17011719 13.71984375 8.08632813 13 8 C13 7.34 13 6.68 13 6 C12.08476563 5.95101562 11.16953125 5.90203125 10.2265625 5.8515625 C9.03804687 5.77679688 7.84953125 5.70203125 6.625 5.625 C5.44164062 5.55539063 4.25828125 5.48578125 3.0390625 5.4140625 C0 5 0 5 -2 3 C-1.34 2.01 -0.68 1.02 0 0 Z " fill="#F3F6FB" transform="translate(623,51)"/>
<path d="M0 0 C0.33 0 0.66 0 1 0 C1 14.19 1 28.38 1 43 C-0.32 42.67 -1.64 42.34 -3 42 C-3 28.8 -3 15.6 -3 2 C-2.01 2.495 -2.01 2.495 -1 3 C-0.67 2.01 -0.34 1.02 0 0 Z " fill="#354393" transform="translate(155,101)"/>
<path d="M0 0 C0.66 0.33 1.32 0.66 2 1 C0.68 2.65 -0.64 4.3 -2 6 C-0.68 6.66 0.64 7.32 2 8 C1.154375 8.61875 0.30875 9.2375 -0.5625 9.875 C-4.97019898 13.51841863 -7.88388618 18.2615795 -11 23 C-11.66 23.99 -12.32 24.98 -13 26 C-13.875 23.9375 -13.875 23.9375 -14 21 C-12.6012738 18.99444182 -11.05221444 17.30193329 -9.34765625 15.55078125 C-7.78135223 14.09081854 -7.78135223 14.09081854 -8 12 C-8.66 12 -9.32 12 -10 12 C-10.66 13.65 -11.32 15.3 -12 17 C-13.32 16.67 -14.64 16.34 -16 16 C-11.40077809 9.47827376 -6.52172624 4.59922191 0 0 Z " fill="#E2E6F5" transform="translate(594,60)"/>
<path d="M0 0 C0 0.66 0 1.32 0 2 C0.474375 2.433125 0.94875 2.86625 1.4375 3.3125 C3.41383086 5.44693733 3.61663236 7.16307947 4 10 C2.02 10.99 2.02 10.99 0 12 C-0.23074219 11.38769531 -0.46148437 10.77539062 -0.69921875 10.14453125 C-2.37617126 7.37982576 -3.82520309 6.84748486 -6.8125 5.6875 C-7.66457031 5.34074219 -8.51664063 4.99398437 -9.39453125 4.63671875 C-12.33085928 3.91914533 -14.08197827 4.4067493 -17 5 C-17.99 4.34 -18.98 3.68 -20 3 C-16.60841895 -0.09992175 -13.96405478 -0.48221746 -9.4375 -0.75 C-7.73400391 -0.86601563 -7.73400391 -0.86601563 -5.99609375 -0.984375 C-3 -1 -3 -1 0 0 Z " fill="#EDEEE9" transform="translate(159,85)"/>
<path d="M0 0 C3.45360717 5.18041075 3.14292967 10.74458563 3.09765625 16.8046875 C3.09553383 17.8906572 3.09553383 17.8906572 3.09336853 18.99856567 C3.08781075 21.29075407 3.07526633 23.58284157 3.0625 25.875 C3.05747953 27.43749858 3.05291759 28.99999871 3.04882812 30.5625 C3.03785519 34.37503835 3.0206201 38.18750212 3 42 C1.515 42.495 1.515 42.495 0 43 C0 28.81 0 14.62 0 0 Z " fill="#F1EEEC" transform="translate(164,101)"/>
<path d="M0 0 C1.32 0.33 2.64 0.66 4 1 C3.01 1.495 3.01 1.495 2 2 C1.99413376 2.70664291 1.98826752 3.41328583 1.98222351 4.14134216 C1.92407039 10.83459538 1.85186641 17.52753699 1.76428509 24.22047329 C1.71975422 27.66054838 1.68046155 31.10050975 1.65356445 34.54077148 C1.62233033 38.50529653 1.56754896 42.46933596 1.51171875 46.43359375 C1.50213387 48.2669352 1.50213387 48.2669352 1.49235535 50.13731384 C1.35346524 58.28038701 0.58212614 65.12681079 -4 72 C-5.32 71.67 -6.64 71.34 -8 71 C-7.53851563 70.443125 -7.07703125 69.88625 -6.6015625 69.3125 C-4.90775131 66.86680189 -4.16697293 64.85458375 -3.375 62 C-3.13523437 61.154375 -2.89546875 60.30875 -2.6484375 59.4375 C-2.43445313 58.633125 -2.22046875 57.82875 -2 57 C-1.73879112 56.0991568 -1.73879112 56.0991568 -1.4723053 55.18011475 C-0.92181735 52.6391166 -0.83801441 50.28086481 -0.79467773 47.68066406 C-0.77473251 46.61986633 -0.75478729 45.5590686 -0.73423767 44.46612549 C-0.70916893 42.75812775 -0.70916893 42.75812775 -0.68359375 41.015625 C-0.66281265 39.84489441 -0.64203156 38.67416382 -0.62062073 37.46795654 C-0.55524372 33.72869731 -0.49629509 29.98936795 -0.4375 26.25 C-0.39430353 23.7148365 -0.35068888 21.17968009 -0.30664062 18.64453125 C-0.19957441 12.4297616 -0.0977859 6.21492222 0 0 Z " fill="#313B7C" transform="translate(90,69)"/>
<path d="M0 0 C0 1.65 0 3.3 0 5 C8.415 4.505 8.415 4.505 17 4 C17 3.01 17 2.02 17 1 C18.65 1 20.3 1 22 1 C22 2.98 22 4.96 22 7 C12.43 7 2.86 7 -7 7 C-7 5.02 -7 3.04 -7 1 C-4 0 -4 0 0 0 Z " fill="#DEE4F5" transform="translate(112,144)"/>
<path d="M0 0 C10.56 0 21.12 0 32 0 C32 1.98 32 3.96 32 6 C28.52674819 7.1577506 25.63932552 7.06866652 22 7 C22 9.64 22 12.28 22 15 C21.67 15 21.34 15 21 15 C19.76923077 9.58461538 19.76923077 9.58461538 20.9375 6.625 C21.4634375 5.820625 21.4634375 5.820625 22 5 C23.65 5 25.3 5 27 5 C27 4.34 27 3.68 27 3 C27.66 2.67 28.32 2.34 29 2 C16.13 1.505 16.13 1.505 3 1 C3.99 1.99 4.98 2.98 6 4 C6.99 4 7.98 4 9 4 C9 4.99 9 5.98 9 7 C6.03 6.67 3.06 6.34 0 6 C0 4.02 0 2.04 0 0 Z " fill="#EBEEFC" transform="translate(14,62)"/>
<path d="M0 0 C0.33 0 0.66 0 1 0 C1 12.87 1 25.74 1 39 C3.97 39 6.94 39 10 39 C10 39.66 10 40.32 10 41 C10.66 41 11.32 41 12 41 C11.67 42.32 11.34 43.64 11 45 C10.34 45 9.68 45 9 45 C9 45.99 9 46.98 9 48 C0.09 48 -8.82 48 -18 48 C-18 47.67 -18 47.34 -18 47 C-9.42 47 -0.84 47 8 47 C8 45.02 8 43.04 8 41 C5.36 40.67 2.72 40.34 0 40 C0 26.8 0 13.6 0 0 Z " fill="#313B7E" transform="translate(169,104)"/>
<path d="M0 0 C-0.33 1.32 -0.66 2.64 -1 4 C-0.01 4.33 0.98 4.66 2 5 C0.28133783 6.0384211 -1.45044598 7.05514635 -3.1875 8.0625 C-4.15042969 8.63097656 -5.11335937 9.19945313 -6.10546875 9.78515625 C-9.32916541 11.13815174 -10.72520421 11.04769518 -14 10 C-12.79618552 7.50638429 -11.54571278 5.31856917 -10 3 C-9.01 2.67 -8.02 2.34 -7 2 C-6.67 1.34 -6.34 0.68 -6 0 C-3 -1 -3 -1 0 0 Z " fill="#F1F4F9" transform="translate(606,56)"/>
<path d="M0 0 C2 2 2 2 2.24050903 3.83499146 C2.23606781 4.57667572 2.23162659 5.31835999 2.22705078 6.08251953 C2.22689972 6.92324005 2.22674866 7.76396057 2.22659302 8.63015747 C2.21627045 9.53853363 2.20594788 10.44690979 2.1953125 11.3828125 C2.1924826 12.31221649 2.18965271 13.24162048 2.18673706 14.19918823 C2.17552069 17.1745885 2.1504136 20.14969035 2.125 23.125 C2.11497208 25.13931858 2.1058459 27.15364186 2.09765625 29.16796875 C2.07557661 34.11209456 2.04103693 39.05599665 2 44 C1.01 43.67 0.02 43.34 -1 43 C-0.67 28.81 -0.34 14.62 0 0 Z " fill="#C0C5E5" transform="translate(167,102)"/>
<path d="M0 0 C9.24 0 18.48 0 28 0 C28 1.98 28 3.96 28 6 C23.545 6.495 23.545 6.495 19 7 C19 6.34 19 5.68 19 5 C19.639375 4.896875 20.27875 4.79375 20.9375 4.6875 C21.9584375 4.3471875 21.9584375 4.3471875 23 4 C23.33 3.01 23.66 2.02 24 1 C13.605 1.495 13.605 1.495 3 2 C4.5 6 4.5 6 7 7 C4.69 6.67 2.38 6.34 0 6 C0 4.02 0 2.04 0 0 Z " fill="#E4EBFC" transform="translate(71,62)"/>
<path d="M0 0 C3.96 1.98 3.96 1.98 8 4 C8 4.66 8 5.32 8 6 C9.32 6 10.64 6 12 6 C12.33 4.68 12.66 3.36 13 2 C14.32 3.32 15.64 4.64 17 6 C15.35 8.31 13.7 10.62 12 13 C8.57041562 11.58214152 6.97606696 9.96809658 4.875 6.9375 C2.88925353 3.95372478 2.88925353 3.95372478 0 2 C0 1.34 0 0.68 0 0 Z " fill="#353F8F" transform="translate(689,86)"/>
<path d="M0 0 C0.66 0.33 1.32 0.66 2 1 C1.67 1.66 1.34 2.32 1 3 C1.66 3 2.32 3 3 3 C2.84992569 7.95245213 0.13930942 10.36965314 -3.11328125 13.7421875 C-5 15 -5 15 -7.23046875 14.6953125 C-7.81441406 14.46585938 -8.39835938 14.23640625 -9 14 C-8.41457824 10.37363743 -6.97353457 8.54114586 -4.5 5.875 C-1.94538114 3.14762761 -1.94538114 3.14762761 0 0 Z " fill="#F4F8FC" transform="translate(685,122)"/>
<path d="M0 0 C1.60379341 -0.05416188 3.20811406 -0.09286638 4.8125 -0.125 C5.70582031 -0.14820313 6.59914063 -0.17140625 7.51953125 -0.1953125 C10 0 10 0 13 2 C12.67 3.32 12.34 4.64 12 6 C8.04 6 4.08 6 0 6 C0.66 5.34 1.32 4.68 2 4 C1.34 2.68 0.68 1.36 0 0 Z " fill="#788ECF" transform="translate(294,146)"/>
<path d="M0 0 C4.56756196 0.8783773 6.52067674 1.385483 9.4375 5.125 C10.2109375 6.548125 10.2109375 6.548125 11 8 C10.01 8.495 10.01 8.495 9 9 C9.33 10.32 9.66 11.64 10 13 C7.64035727 12.59316505 6.14065912 12.10185661 4.1875 10.6875 C3 9 3 9 3.3125 6.8125 C3.539375 6.214375 3.76625 5.61625 4 5 C2.68 4.34 1.36 3.68 0 3 C0 2.01 0 1.02 0 0 Z " fill="#F1F1F9" transform="translate(712,126)"/>
<path d="M0 0 C3.9252025 3.70090521 6.94580156 7.54959656 10 12 C9.67 12.66 9.34 13.32 9 14 C8.01 13.67 7.02 13.34 6 13 C5.67 14.32 5.34 15.64 5 17 C0.125 12.375 0.125 12.375 -1 9 C-0.34 9 0.32 9 1 9 C1.66 9.66 2.32 10.32 3 11 C2.01 7.37 1.02 3.74 0 0 Z " fill="#DCE2F1" transform="translate(814,67)"/>
<path d="M0 0 C0.66 0 1.32 0 2 0 C2 0.66 2 1.32 2 2 C2.99 2.33 3.98 2.66 5 3 C3.58829091 4.29708314 2.17041804 5.58745978 0.75 6.875 C-0.03890625 7.59429687 -0.8278125 8.31359375 -1.640625 9.0546875 C-3.72026168 10.76935483 -5.54419267 11.92980873 -8 13 C-8 12.01 -8 11.02 -8 10 C-8.66 10 -9.32 10 -10 10 C-9.67 9.01 -9.34 8.02 -9 7 C-7.35 7.33 -5.7 7.66 -4 8 C-4 7.34 -4 6.68 -4 6 C-3.34 6 -2.68 6 -2 6 C-1.855625 5.195625 -1.71125 4.39125 -1.5625 3.5625 C-1 1 -1 1 0 0 Z " fill="#35418B" transform="translate(667,132)"/>
<path d="M0 0 C0.88429688 -0.00773437 1.76859375 -0.01546875 2.6796875 -0.0234375 C3.53304687 -0.02085938 4.38640625 -0.01828125 5.265625 -0.015625 C6.03165039 -0.01336914 6.79767578 -0.01111328 7.58691406 -0.00878906 C10.00695911 0.28074229 11.64672316 1.0472744 13.75 2.25 C12.69941406 2.23839844 11.64882813 2.22679687 10.56640625 2.21484375 C3.2127252 2.15787923 -3.95619996 2.21601302 -11.25 3.25 C-12.93698743 3.44205703 -14.62449638 3.62958939 -16.3125 3.8125 C-17.611875 3.956875 -18.91125 4.10125 -20.25 4.25 C-15.23632412 -0.76367588 -6.64107994 -0.05911941 0 0 Z " fill="#47508E" transform="translate(626.25,57.75)"/>
<path d="M0 0 C-0.33 1.32 -0.66 2.64 -1 4 C3.29 4 7.58 4 12 4 C9.25090732 6.74909268 7.58354488 6.29937142 3.75 6.3125 C-1.38669226 6.24992678 -4.76787744 5.9020269 -9 3 C-9 2.01 -9 1.02 -9 0 C-5.52176885 -1.15941038 -3.54104422 -0.70820884 0 0 Z " fill="#35408B" transform="translate(55,139)"/>
<path d="M0 0 C0.99 0.33 1.98 0.66 3 1 C1.06478939 2.79419526 -0.8730354 4.58541329 -2.8125 6.375 C-3.63331055 7.13683594 -3.63331055 7.13683594 -4.47070312 7.9140625 C-6.90022015 10.15216303 -9.24568668 12.16379112 -12 14 C-12 12.35 -12 10.7 -12 9 C-11.195625 8.79375 -10.39125 8.5875 -9.5625 8.375 C-8.716875 7.92125 -7.87125 7.4675 -7 7 C-6.10169161 3.94727535 -6.10169161 3.94727535 -6 1 C-3.03 1.495 -3.03 1.495 0 2 C0 1.34 0 0.68 0 0 Z " fill="#37428A" transform="translate(726,67)"/>
<path d="M0 0 C2.33364352 2.92903058 4.04960836 5.88568203 5.6875 9.25 C6.34298828 10.58804688 6.34298828 10.58804688 7.01171875 11.953125 C7.33785156 12.62859375 7.66398438 13.3040625 8 14 C7.34 14 6.68 14 6 14 C6 13.34 6 12.68 6 12 C5.236875 12 4.47375 12 3.6875 12 C1.79166667 12 -0.10416667 12 -2 12 C-2.33 11.01 -2.66 10.02 -3 9 C-2.01 8.67 -1.02 8.34 0 8 C0 5.36 0 2.72 0 0 Z " fill="#E3E7F5" transform="translate(578,124)"/>
<path d="M0 0 C0.99 0.33 1.98 0.66 3 1 C2.68817931 2.41681634 2.37551263 3.83344651 2.0625 5.25 C1.88847656 6.03890625 1.71445312 6.8278125 1.53515625 7.640625 C1.052444 9.76878703 0.53836822 11.88532842 0 14 C-0.66 14 -1.32 14 -2 14 C-2 18.29 -2 22.58 -2 27 C-2.33 27 -2.66 27 -3 27 C-3.21481582 18.15674868 -3.33324335 9.61767251 -1 1 C-0.67 0.67 -0.34 0.34 0 0 Z " fill="#3D478A" transform="translate(571,82)"/>
<path d="M0 0 C-2.62958029 0.97391863 -3.68592518 1.13016426 -6.3269043 0.03564453 C-9.14506181 -1.05620168 -11.08001863 -1.23214701 -14.08203125 -1.1953125 C-15.01337891 -1.18886719 -15.94472656 -1.18242188 -16.90429688 -1.17578125 C-17.86400391 -1.15902344 -18.82371094 -1.14226563 -19.8125 -1.125 C-20.79154297 -1.11597656 -21.77058594 -1.10695312 -22.77929688 -1.09765625 C-25.18645061 -1.07417182 -27.59309743 -1.0413284 -30 -1 C-23.12136225 -7.87863775 -7.34063458 -4.69800613 0 0 Z " fill="#59659E" transform="translate(646,53)"/>
<path d="M0 0 C-2.27741687 2.8350083 -3.43258797 3.91062609 -7.08447266 4.48583984 C-8.85636963 4.47351318 -8.85636963 4.47351318 -10.6640625 4.4609375 C-11.95054687 4.45707031 -13.23703125 4.45320312 -14.5625 4.44921875 C-15.22894531 4.43681152 -15.89539063 4.4244043 -16.58203125 4.41162109 C-18.62550458 4.37499096 -20.66716935 4.3706027 -22.7109375 4.37109375 C-32.71934366 4.28065634 -32.71934366 4.28065634 -35 2 C-25.43 2 -15.86 2 -6 2 C-6 1.34 -6 0.68 -6 0 C-2.25 -1.125 -2.25 -1.125 0 0 Z " fill="#5A659F" transform="translate(795,161)"/>
<path d="M0 0 C0 3 0 3 -2 6 C-2.165 6.86625 -2.33 7.7325 -2.5 8.625 C-2.7475 9.800625 -2.7475 9.800625 -3 11 C-3.99 11.495 -3.99 11.495 -5 12 C-5 13.65 -5 15.3 -5 17 C-6.32 17.33 -7.64 17.66 -9 18 C-9.73828125 16.3828125 -9.73828125 16.3828125 -10 14 C-8.41796875 11.0546875 -8.41796875 11.0546875 -6.1875 7.875 C-5.45917969 6.82054688 -4.73085938 5.76609375 -3.98046875 4.6796875 C-2 2 -2 2 0 0 Z " fill="#4D5693" transform="translate(714,92)"/>
<path d="M0 0 C5.61 0 11.22 0 17 0 C17 0.33 17 0.66 17 1 C12.38 1 7.76 1 3 1 C3.99 1.99 4.98 2.98 6 4 C6.99 4 7.98 4 9 4 C9 4.99 9 5.98 9 7 C6.03 6.67 3.06 6.34 0 6 C0 4.02 0 2.04 0 0 Z " fill="#DBE3F8" transform="translate(14,62)"/>
<path d="M0 0 C0.33 0 0.66 0 1 0 C0.72740991 6.77386385 -0.19053359 11.34724339 -4 17 C-5.32 16.67 -6.64 16.34 -8 16 C-7.53980469 15.44828125 -7.07960938 14.8965625 -6.60546875 14.328125 C-4.87094817 11.81285915 -4.12325802 9.6841719 -3.3125 6.75 C-3.06113281 5.85796875 -2.80976562 4.9659375 -2.55078125 4.046875 C-2.36902344 3.37140625 -2.18726562 2.6959375 -2 2 C-1.34 2 -0.68 2 0 2 C0 1.34 0 0.68 0 0 Z " fill="#364382" transform="translate(90,124)"/>
<path d="M0 0 C2.51004142 0.46482249 4.05842447 1.0400625 6.1875 2.5 C10.03079536 4.54975753 13.7025881 4.72848596 18 5 C18 5.33 18 5.66 18 6 C15.39555652 6.05394705 12.79223002 6.09364469 10.1875 6.125 C9.44951172 6.14175781 8.71152344 6.15851563 7.95117188 6.17578125 C4.08753574 6.21074628 2.29096332 6.19397555 -1 4 C-0.67 2.68 -0.34 1.36 0 0 Z " fill="#CED5E5" transform="translate(46,146)"/>
<path d="M0 0 C5.39058824 5.20470588 5.39058824 5.20470588 7 8 C6.6875 10.75 6.6875 10.75 6 13 C5.34 13 4.68 13 4 13 C3.34 14.32 2.68 15.64 2 17 C1.34 16.67 0.68 16.34 0 16 C0 15.34 0 14.68 0 14 C0.99 14 1.98 14 3 14 C3 11.69 3 9.38 3 7 C2.34 6.67 1.68 6.34 1 6 C0.375 2.9375 0.375 2.9375 0 0 Z " fill="#475293" transform="translate(689,98)"/>
<path d="M0 0 C0.66 0 1.32 0 2 0 C3.35386936 1.65002828 4.68678142 3.3174387 6 5 C6.66 5.33 7.32 5.66 8 6 C9.1875 8.375 9.1875 8.375 10 11 C9.67 11.99 9.34 12.98 9 14 C7.67569475 12.61536194 6.36597197 11.2167677 5.0625 9.8125 C4.33160156 9.03519531 3.60070312 8.25789062 2.84765625 7.45703125 C0.90131937 4.86877354 0.35600114 3.18140701 0 0 Z " fill="#3E488C" transform="translate(584,132)"/>
<path d="M0 0 C1.875 0.625 1.875 0.625 4 2 C5.125 5 5.125 5 6 8 C6.66 8.66 7.32 9.32 8 10 C8.33 10 8.66 10 9 10 C9 11.65 9 13.3 9 15 C8.01 15 7.02 15 6 15 C5.17988688 13.44148245 4.36923787 11.87798284 3.5625 10.3125 C3.11003906 9.44238281 2.65757813 8.57226562 2.19140625 7.67578125 C1.04008072 5.09001736 0.43679247 2.78643472 0 0 Z " fill="#E2E5F6" transform="translate(24,127)"/>
<path d="M0 0 C0.33 0.99 0.66 1.98 1 3 C0.01 3.66 -0.98 4.32 -2 5 C-1.79375 5.9075 -1.5875 6.815 -1.375 7.75 C-0.9872755 11.11027897 -1.19588033 12.24075815 -3 15 C-3 13.02 -3 11.04 -3 9 C-5.31 10.32 -7.62 11.64 -10 13 C-7.73457912 7.85131619 -4.68917123 3.12611416 0 0 Z " fill="#424D97" transform="translate(593,70)"/>
<path d="M0 0 C2.5 1.375 2.5 1.375 5 3 C5 3.66 5 4.32 5 5 C4.34 5 3.68 5 3 5 C3.33 6.98 3.66 8.96 4 11 C2.66144944 10.21718695 1.32926356 9.42348123 0 8.625 C-1.11375 7.96371094 -1.11375 7.96371094 -2.25 7.2890625 C-3.11625 6.65097656 -3.11625 6.65097656 -4 6 C-4 5.34 -4 4.68 -4 4 C-3.01 3.67 -2.02 3.34 -1 3 C-0.67 2.01 -0.34 1.02 0 0 Z " fill="#E2E6F4" transform="translate(804,60)"/>
<path d="M0 0 C0.66 1.32 1.32 2.64 2 4 C0.02 6.97 0.02 6.97 -2 10 C-2.99 9.67 -3.98 9.34 -5 9 C-5.99 9.66 -6.98 10.32 -8 11 C-8.66 10.67 -9.32 10.34 -10 10 C-6.7 6.7 -3.4 3.4 0 0 Z " fill="#48509C" transform="translate(686,130)"/>
<path d="M0 0 C-0.33 3.63 -0.66 7.26 -1 11 C-1.66 11 -2.32 11 -3 11 C-3.33 8.36 -3.66 5.72 -4 3 C-5.98 3.33 -7.96 3.66 -10 4 C-9.67 2.68 -9.34 1.36 -9 0 C-5.32431536 -0.91892116 -3.83619425 -0.95904856 0 0 Z " fill="#273A86" transform="translate(47,69)"/>
<path d="M0 0 C0 0.99 0 1.98 0 3 C0.3062434 4.33981486 0.63451555 5.67511887 1 7 C0.34 7 -0.32 7 -1 7 C-1 7.66 -1 8.32 -1 9 C-4.3 8.67 -7.6 8.34 -11 8 C-10 6 -10 6 -6.625 4.5625 C-3.56642783 3.24414993 -2.03127817 2.50922597 0 0 Z " fill="#314590" transform="translate(246,96)"/>
<path d="M0 0 C3 1 3 1 5.1875 4.3125 C7.76989703 9.70313106 7.35071157 15.1548072 7 21 C6.67 21 6.34 21 6 21 C5.81824219 20.11957031 5.63648438 19.23914063 5.44921875 18.33203125 C5.19785156 17.17058594 4.94648438 16.00914063 4.6875 14.8125 C4.44386719 13.66394531 4.20023438 12.51539062 3.94921875 11.33203125 C3.02789819 8.09793067 1.74972752 5.83779337 0 3 C0 2.01 0 1.02 0 0 Z " fill="#364282" transform="translate(162,83)"/>
<path d="M0 0 C0.86625 0.2784375 0.86625 0.2784375 1.75 0.5625 C4.20692525 1.04023546 5.64397534 0.75729364 8 0 C8.33 0.99 8.66 1.98 9 3 C7.71186658 3.83878455 6.41936744 4.67086783 5.125 5.5 C4.40570313 5.9640625 3.68640625 6.428125 2.9453125 6.90625 C1 8 1 8 -1 8 C-1 7.01 -1 6.02 -1 5 C-0.34 4.67 0.32 4.34 1 4 C0.67 2.68 0.34 1.36 0 0 Z " fill="#DFE2ED" transform="translate(70,142)"/>
<path d="M0 0 C1.24523437 0.01804688 2.49046875 0.03609375 3.7734375 0.0546875 C5.18496094 0.08949219 5.18496094 0.08949219 6.625 0.125 C6.625 0.455 6.625 0.785 6.625 1.125 C3.7509578 1.63112064 0.87597127 2.13006541 -2 2.625 C-2.80824219 2.76808594 -3.61648438 2.91117188 -4.44921875 3.05859375 C-8.81377864 3.80376251 -12.92738129 4.29772306 -17.375 4.125 C-11.58149001 1.0054177 -6.59154149 -0.12436871 0 0 Z " fill="#2C3981" transform="translate(773.375,57.875)"/>
<path d="M0 0 C2.31 0 4.62 0 7 0 C7.66 1.65 8.32 3.3 9 5 C10.32 5 11.64 5 13 5 C13 6.65 13 8.3 13 10 C3.40546697 3.84965831 3.40546697 3.84965831 0 0 Z " fill="#454E8E" transform="translate(801,57)"/>
<path d="M0 0 C-2.5654594 2.5654594 -4.47686668 2.54046087 -8 3 C-8.33 3.99 -8.66 4.98 -9 6 C-12.21284338 7.88579937 -14.24633583 9 -18 9 C-16.25 7 -16.25 7 -14 5 C-12.68 5 -11.36 5 -10 5 C-9.67 3.68 -9.34 2.36 -9 1 C-5.92677456 0.08941469 -3.19902639 -0.08886184 0 0 Z " fill="#43488D" transform="translate(608,53)"/>
<path d="M0 0 C1.65 0 3.3 0 5 0 C5 1.98 5 3.96 5 6 C2.03 6 -0.94 6 -4 6 C-3 4 -3 4 0 3 C0 2.01 0 1.02 0 0 Z " fill="#E3ECFC" transform="translate(129,145)"/>
<path d="M0 0 C1.31611677 0.95336021 2.62778961 1.91285774 3.9375 2.875 C4.66839844 3.40867188 5.39929688 3.94234375 6.15234375 4.4921875 C8 6 8 6 9 8 C6.69 7.67 4.38 7.34 2 7 C2 6.34 2 5.68 2 5 C1.01 5.33 0.02 5.66 -1 6 C-0.67 4.02 -0.34 2.04 0 0 Z " fill="#3A4691" transform="translate(721,141)"/>
<path d="M0 0 C0 0.66 0 1.32 0 2 C-0.99 2.33 -1.98 2.66 -3 3 C-2.67 3.66 -2.34 4.32 -2 5 C-2.99 5 -3.98 5 -5 5 C-5 5.66 -5 6.32 -5 7 C-5.99 7 -6.98 7 -8 7 C-8 5.02 -8 3.04 -8 1 C-5.07175348 0.02391783 -3.04386724 -0.08226668 0 0 Z " fill="#D5DBEF" transform="translate(156,144)"/>
<path d="M0 0 C1.14926266 0.95421808 2.29430541 1.91352045 3.4375 2.875 C4.07558594 3.40867188 4.71367188 3.94234375 5.37109375 4.4921875 C7 6 7 6 8 8 C7.34 8.66 6.68 9.32 6 10 C5.67 9.01 5.34 8.02 5 7 C3.35 7 1.7 7 0 7 C0 4.69 0 2.38 0 0 Z " fill="#444E92" transform="translate(580,142)"/>
<path d="M0 0 C0 0.66 0 1.32 0 2 C0.66 2.33 1.32 2.66 2 3 C2.33 3.66 2.66 4.32 3 5 C1.35 5.33 -0.3 5.66 -2 6 C-4 3 -4 3 -5 1 C-7.64 1 -10.28 1 -13 1 C-13 0.67 -13 0.34 -13 0 C-4.57142857 -1.28571429 -4.57142857 -1.28571429 0 0 Z " fill="#6D84C6" transform="translate(309,145)"/>
<path d="M0 0 C1.32 0.66 2.64 1.32 4 2 C3.01 2.495 3.01 2.495 2 3 C2 4.65 2 6.3 2 8 C2.99 8 3.98 8 5 8 C5 8.66 5 9.32 5 10 C3.02 9.34 1.04 8.68 -1 8 C-1 7.34 -1 6.68 -1 6 C-1.66 5.67 -2.32 5.34 -3 5 C-2.01 3.35 -1.02 1.7 0 0 Z " fill="#E2E7F7" transform="translate(741,148)"/>
<path d="M0 0 C-1.98 0.99 -1.98 0.99 -4 2 C-4 2.66 -4 3.32 -4 4 C-6.64 4.66 -9.28 5.32 -12 6 C-12.33 5.34 -12.66 4.68 -13 4 C-8.66957446 0.44286474 -5.53947792 -0.15387439 0 0 Z " fill="#3A4389" transform="translate(802,148)"/>
<path d="M0 0 C2.31 0 4.62 0 7 0 C7 0.66 7 1.32 7 2 C6.34 2 5.68 2 5 2 C5 2.66 5 3.32 5 4 C5.66 4.33 6.32 4.66 7 5 C6.67 5.66 6.34 6.32 6 7 C3.5625 6.3125 3.5625 6.3125 1 5 C0.1875 2.375 0.1875 2.375 0 0 Z " fill="#314293" transform="translate(360,136)"/>
<path d="M0 0 C0.66 0.99 1.32 1.98 2 3 C0.625 4.5 0.625 4.5 -1 6 C-1.66 6 -2.32 6 -3 6 C-3.28875 6.639375 -3.5775 7.27875 -3.875 7.9375 C-5 10 -5 10 -7 11 C-7.625 8.625 -7.625 8.625 -8 6 C-7.34 5.34 -6.68 4.68 -6 4 C-6 4.66 -6 5.32 -6 6 C-4.68 5.67 -3.36 5.34 -2 5 C-1.855625 4.360625 -1.71125 3.72125 -1.5625 3.0625 C-1 1 -1 1 0 0 Z " fill="#414D92" transform="translate(680,123)"/>
<path d="M0 0 C1.32 0.33 2.64 0.66 4 1 C3.67 1.66 3.34 2.32 3 3 C3.66 3 4.32 3 5 3 C5.33 4.65 5.66 6.3 6 8 C4.02 7.34 2.04 6.68 0 6 C0 4.02 0 2.04 0 0 Z " fill="#7184CD" transform="translate(340,84)"/>
<path d="M0 0 C0.33 0 0.66 0 1 0 C1.4813341 1.72856459 1.95996971 3.45788071 2.4375 5.1875 C2.70433594 6.15042969 2.97117187 7.11335937 3.24609375 8.10546875 C3.92880018 10.72663697 4.49892195 13.338935 5 16 C1.92484911 13.2323642 0.03453717 11.04409984 -1 7 C-0.625 3.1875 -0.625 3.1875 0 0 Z " fill="#414A85" transform="translate(23,123)"/>
<path d="M0 0 C0.66 0.33 1.32 0.66 2 1 C0 4 0 4 -3 5 C-4.39712274 6.95597184 -5.73779907 8.95436401 -7 11 C-7.99 10.34 -8.98 9.68 -10 9 C-6.7 6.03 -3.4 3.06 0 0 Z " fill="#4C5693" transform="translate(736,70)"/>
<path d="M0 0 C2.375 -0.1875 2.375 -0.1875 5 0 C5.66 0.99 6.32 1.98 7 3 C3.77208445 5.1519437 2.71599191 5.20086443 -1 5 C-0.67 3.35 -0.34 1.7 0 0 Z " fill="#E0E1EA" transform="translate(169,144)"/>
<path d="M0 0 C1.65 0.33 3.3 0.66 5 1 C3.38731308 3.71224618 1.75098126 6.37352812 0 9 C-0.66 8.67 -1.32 8.34 -2 8 C-1.34 5.36 -0.68 2.72 0 0 Z " fill="#4A5099" transform="translate(580,86)"/>
<path d="M0 0 C0.33 0 0.66 0 1 0 C1.66 3.63 2.32 7.26 3 11 C1.68 11.33 0.36 11.66 -1 12 C-1.02712066 10.56260487 -1.04645067 9.12506137 -1.0625 7.6875 C-1.07410156 6.88699219 -1.08570313 6.08648437 -1.09765625 5.26171875 C-1 3 -1 3 0 0 Z " fill="#DAE1F1" transform="translate(36,122)"/>
<path d="M0 0 C3.67420866 0.30618405 4.78135513 0.75771784 7.3125 3.5625 C8.1478125 4.7690625 8.1478125 4.7690625 9 6 C8.01 6.33 7.02 6.66 6 7 C1.125 2.25 1.125 2.25 0 0 Z " fill="#DDE4F6" transform="translate(157,85)"/>
<path d="M0 0 C-0.33 0.99 -0.66 1.98 -1 3 C-3.31 3 -5.62 3 -8 3 C-8 5.64 -8 8.28 -8 11 C-8.33 11 -8.66 11 -9 11 C-9.68066494 8.00507424 -10.17005683 5.69912251 -9.4375 2.6875 C-6.9765154 -0.20148192 -3.60961334 0 0 0 Z " fill="#E3E6FB" transform="translate(44,66)"/>
<path d="M0 0 C1.2684375 0.12375 1.2684375 0.12375 2.5625 0.25 C3.2225 1.24 3.8825 2.23 4.5625 3.25 C3.9025 3.25 3.2425 3.25 2.5625 3.25 C2.43875 3.889375 2.315 4.52875 2.1875 5.1875 C1.98125 5.868125 1.775 6.54875 1.5625 7.25 C0.5725 7.745 0.5725 7.745 -0.4375 8.25 C-0.4375 6.27 -0.4375 4.29 -0.4375 2.25 C-1.4275 1.92 -2.4175 1.59 -3.4375 1.25 C-2.4375 0.25 -2.4375 0.25 0 0 Z " fill="#2A3780" transform="translate(99.4375,58.75)"/>
<path d="M0 0 C0.99 0.66 1.98 1.32 3 2 C2.01 2.33 1.02 2.66 0 3 C-1.21869929 5.50447516 -1.21869929 5.50447516 -2 8 C-2.99 8 -3.98 8 -5 8 C-4.45773019 4.20411134 -2.79872437 2.52788007 0 0 Z " fill="#FBFDF6" transform="translate(681,128)"/>
<path d="M0 0 C0.66 0.33 1.32 0.66 2 1 C-0.10148204 4.98175544 -2.36905358 7.35039045 -6 10 C-6 6 -6 6 -4.6875 4.4375 C-4.130625 3.963125 -3.57375 3.48875 -3 3 C-2.1646875 2.1646875 -2.1646875 2.1646875 -1.3125 1.3125 C-0.879375 0.879375 -0.44625 0.44625 0 0 Z " fill="#FBFDF4" transform="translate(586,71)"/>
<path d="M0 0 C0.99 0.33 1.98 0.66 3 1 C2.34 3.31 1.68 5.62 1 8 C0.34 8 -0.32 8 -1 8 C-1 7.34 -1 6.68 -1 6 C-1.66 6 -2.32 6 -3 6 C-3.33 5.01 -3.66 4.02 -4 3 C-2.68 2.67 -1.36 2.34 0 2 C0 1.34 0 0.68 0 0 Z " fill="#2B397C" transform="translate(69,60)"/>
<path d="M0 0 C7.50769231 -0.36923077 7.50769231 -0.36923077 10 1.5 C10.495 2.2425 10.495 2.2425 11 3 C9.68 3 8.36 3 7 3 C7.33 3.66 7.66 4.32 8 5 C4.62496331 3.8141763 2.35277269 2.72426311 0 0 Z " fill="#49549C" transform="translate(739,146)"/>
<path d="M0 0 C0.99 0.99 1.98 1.98 3 3 C1.75 4.5 1.75 4.5 0 6 C-1.32 6 -2.64 6 -4 6 C-3.67 4.35 -3.34 2.7 -3 1 C-2.34 1 -1.68 1 -1 1 C-0.67 0.67 -0.34 0.34 0 0 Z " fill="#364298" transform="translate(718,138)"/>
<path d="M0 0 C1.2077558 3.62326739 0.54311128 4.64146369 -1 8 C-1.66 8 -2.32 8 -3 8 C-3.33 8.66 -3.66 9.32 -4 10 C-4.8125 8.375 -4.8125 8.375 -5 6 C-3.53181864 3.75390165 -1.84147142 1.97621323 0 0 Z " fill="#485195" transform="translate(698,116)"/>
<path d="M0 0 C5.875 0.875 5.875 0.875 7 2 C7.04063832 3.66617115 7.042721 5.33388095 7 7 C6.34 7 5.68 7 5 7 C4.34 5.35 3.68 3.7 3 2 C2.01 2 1.02 2 0 2 C0 1.34 0 0.68 0 0 Z " fill="#DDE3F6" transform="translate(149,91)"/>
<path d="M0 0 C2.97 0.33 5.94 0.66 9 1 C7.71034824 2.37562854 6.37310707 3.70766393 5 5 C4.34 5 3.68 5 3 5 C3 4.01 3 3.02 3 2 C2.34 2 1.68 2 1 2 C0.67 3.32 0.34 4.64 0 6 C0 4.02 0 2.04 0 0 Z " fill="#6A7CC5" transform="translate(378,84)"/>
<path d="M0 0 C-1.32 0.33 -2.64 0.66 -4 1 C-4 0.34 -4 -0.32 -4 -1 C-5.8253125 -0.7215625 -5.8253125 -0.7215625 -7.6875 -0.4375 C-11.02977939 -0.01006818 -13.71968417 -0.07741117 -17 -1 C-17 -1.33 -17 -1.66 -17 -2 C-11.20665023 -3.68194026 -5.02164138 -3.34776092 0 0 Z " fill="#4B5593" transform="translate(792,61)"/>
<path d="M0 0 C-0.625 1.9375 -0.625 1.9375 -2 4 C-5.125 4.75 -5.125 4.75 -8 5 C-8 4.01 -8 3.02 -8 2 C-5.09399739 0.74335022 -3.20395416 0 0 0 Z " fill="#475192" transform="translate(650,159)"/>
<path d="M0 0 C0 3 0 3 -1.625 5.625 C-4.43693229 8.43693229 -6.10240081 8.7342546 -10 9 C-6.85281112 5.7317654 -3.50647501 2.8689341 0 0 Z " fill="#4B5592" transform="translate(814,147)"/>
<path d="M0 0 C1.38609004 3.15020465 0.89180331 4.31918022 -0.25 7.6875 C-2 11 -2 11 -5 12 C-3.41037341 7.96479403 -1.71767682 3.98188718 0 0 Z " fill="#6269A1" transform="translate(826,128)"/>
<path d="M0 0 C0.99 0 1.98 0 3 0 C3.66 2.31 4.32 4.62 5 7 C4.01 7.495 4.01 7.495 3 8 C2.34 7.67 1.68 7.34 1 7 C0.59270772 4.67843403 0.25561323 2.3431213 0 0 Z " fill="#47508E" transform="translate(571,128)"/>
<path d="M0 0 C0.99 0.33 1.98 0.66 3 1 C2.34 3.31 1.68 5.62 1 8 C0.01 7.67 -0.98 7.34 -2 7 C-2 5.02 -2 3.04 -2 1 C-1.34 0.67 -0.68 0.34 0 0 Z " fill="#ECEEE7" transform="translate(81,131)"/>
<path d="M0 0 C0.66 0.33 1.32 0.66 2 1 C1.75 3.875 1.75 3.875 1 7 C-1.0625 8.375 -1.0625 8.375 -3 9 C-2.44271087 5.65626525 -1.64826111 2.96687001 0 0 Z " fill="#FDFDF6" transform="translate(705,95)"/>
<path d="M0 0 C4 0 4 0 6.75 2.5 C7.86375 3.7375 7.86375 3.7375 9 5 C8.01 5.33 7.02 5.66 6 6 C6 5.34 6 4.68 6 4 C5.01 4.33 4.02 4.66 3 5 C1.5 3.625 1.5 3.625 0 2 C0 1.34 0 0.68 0 0 Z " fill="#F1F6F8" transform="translate(670,72)"/>
<path d="M0 0 C0.66 0.33 1.32 0.66 2 1 C1.64950425 4.24208567 1.43778819 5.61527704 -1.0625 7.8125 C-1.701875 8.204375 -2.34125 8.59625 -3 9 C-3.66 8.67 -4.32 8.34 -5 8 C-3.35 5.36 -1.7 2.72 0 0 Z " fill="#D2DAEC" transform="translate(78,131)"/>
<path d="M0 0 C0.99 0 1.98 0 3 0 C3.33 1.65 3.66 3.3 4 5 C2.68 5.33 1.36 5.66 0 6 C-1.125 2.25 -1.125 2.25 0 0 Z " fill="#3F4C88" transform="translate(705,104)"/>
<path d="M0 0 C1.32 0.33 2.64 0.66 4 1 C4.33 4.3 4.66 7.6 5 11 C4.34 11 3.68 11 3 11 C2.67 8.69 2.34 6.38 2 4 C-0.475 3.01 -0.475 3.01 -3 2 C-2.01 1.34 -1.02 0.68 0 0 Z " fill="#324490" transform="translate(432,81)"/>
<path d="M0 0 C2.1385485 2.1385485 2.42655063 3.13275314 3 6 C1.68 6.33 0.36 6.66 -1 7 C-1 6.34 -1 5.68 -1 5 C-1.66 4.67 -2.32 4.34 -3 4 C-3.33 3.34 -3.66 2.68 -4 2 C-2.68 2 -1.36 2 0 2 C0 1.34 0 0.68 0 0 Z " fill="#7087C7" transform="translate(239,143)"/>
<path d="M0 0 C0 3 0 3 -2.1875 5.625 C-5.00654002 8.00552268 -6.39755548 8.69121904 -10 9 C-6.83047153 5.73991357 -3.60062011 2.77762123 0 0 Z " fill="#CDD4EB" transform="translate(670,136)"/>
<path d="M0 0 C1.57432497 3.14864995 0.71895552 5.64487425 0 9 C-0.99 9.66 -1.98 10.32 -3 11 C-2.25 3.375 -2.25 3.375 0 0 Z " fill="#2D3883" transform="translate(829,125)"/>
<path d="M0 0 C-0.57344937 2.86724686 -0.8614515 3.8614515 -3 6 C-3.99 5.67 -4.98 5.34 -6 5 C-6.33 4.34 -6.66 3.68 -7 3 C-2.25 0 -2.25 0 0 0 Z " fill="#37438F" transform="translate(134,94)"/>
<path d="M0 0 C3.96 1.98 3.96 1.98 8 4 C7.34 5.32 6.68 6.64 6 8 C5.38125 7.195625 4.7625 6.39125 4.125 5.5625 C2.25835959 2.96125481 2.25835959 2.96125481 0 2 C0 1.34 0 0.68 0 0 Z " fill="#485194" transform="translate(689,86)"/>
<path d="M0 0 C0.99 0.99 1.98 1.98 3 3 C2.443125 3.12375 1.88625 3.2475 1.3125 3.375 C-1.22114364 4.05976855 -3.57921032 4.99133763 -6 6 C-6.33 5.34 -6.66 4.68 -7 4 C-4.69 2.68 -2.38 1.36 0 0 Z " fill="#373F88" transform="translate(76,146)"/>
<path d="M0 0 C0.99 0.33 1.98 0.66 3 1 C0.69 3.31 -1.62 5.62 -4 8 C-4.66 7.34 -5.32 6.68 -6 6 C-4.625 4.5 -4.625 4.5 -3 3 C-2.34 3 -1.68 3 -1 3 C-0.67 2.01 -0.34 1.02 0 0 Z " fill="#D9DFF1" transform="translate(811,140)"/>
<path d="M0 0 C0.66 0.33 1.32 0.66 2 1 C0.92643323 2.15498897 -0.15929788 3.29867867 -1.25 4.4375 C-1.85328125 5.07558594 -2.4565625 5.71367188 -3.078125 6.37109375 C-5.10048016 8.08516306 -6.41270605 8.59358878 -9 9 C-6 6 -3 3 0 0 Z " fill="#C1C6E2" transform="translate(731,65)"/>
<path d="M0 0 C0 0.99 0 1.98 0 3 C-3 5.1875 -3 5.1875 -6 7 C-6.33 5.68 -6.66 4.36 -7 3 C-2.25 0 -2.25 0 0 0 Z " fill="#4D5799" transform="translate(606,62)"/>
<path d="M0 0 C1.65 0 3.3 0 5 0 C5 1.98 5 3.96 5 6 C4.34 5.34 3.68 4.68 3 4 C2.01 4.66 1.02 5.32 0 6 C0 4.02 0 2.04 0 0 Z " fill="#36469A" transform="translate(181,145)"/>
<path d="M0 0 C0.66 0.66 1.32 1.32 2 2 C1.64644564 4.26274788 1.02455574 5.95088852 0 8 C-1.32 7.67 -2.64 7.34 -4 7 C-3.525625 6.401875 -3.05125 5.80375 -2.5625 5.1875 C-0.83534256 2.99617076 -0.83534256 2.99617076 0 0 Z " fill="#424B8B" transform="translate(86,133)"/>
<path d="M0 0 C1.32 0.66 2.64 1.32 4 2 C3.01 3.98 2.02 5.96 1 8 C0.34 8 -0.32 8 -1 8 C-0.67 5.36 -0.34 2.72 0 0 Z " fill="#DFE3F1" transform="translate(80,122)"/>
<path d="M0 0 C2.50037734 2.17424117 3.43628586 3.73045798 4 7 C3.01 7 2.02 7 1 7 C1 6.34 1 5.68 1 5 C0.34 5 -0.32 5 -1 5 C-0.67 3.35 -0.34 1.7 0 0 Z " fill="#FBFCFB" transform="translate(814,71)"/>
<path d="M0 0 C-0.66 0 -1.32 0 -2 0 C-2.33 0.66 -2.66 1.32 -3 2 C-5.3140622 2.73075648 -7.64828869 3.40138258 -10 4 C-9.67 2.68 -9.34 1.36 -9 0 C-5.62182575 -0.84454356 -3.32534757 -1.10844919 0 0 Z " fill="#373E81" transform="translate(47,69)"/>
<path d="M0 0 C5.66153846 1.47692308 5.66153846 1.47692308 7.375 4.125 C7.684375 5.053125 7.684375 5.053125 8 6 C5.03 5.505 5.03 5.505 2 5 C2.33 4.34 2.66 3.68 3 3 C2.01 2.01 1.02 1.02 0 0 Z " fill="#28387D" transform="translate(648,64)"/>
<path d="M0 0 C4.455 0.99 4.455 0.99 9 2 C8.34 2.66 7.68 3.32 7 4 C3.375 3.625 3.375 3.625 0 3 C0 2.01 0 1.02 0 0 Z " fill="#324397" transform="translate(745,51)"/>
<path d="M0 0 C0 1.65 0 3.3 0 5 C-2.97 4.505 -2.97 4.505 -6 4 C-2.25 0 -2.25 0 0 0 Z " fill="#344A95" transform="translate(389,143)"/>
<path d="M0 0 C1.32 0 2.64 0 4 0 C4 0.99 4 1.98 4 3 C1.69 3.33 -0.62 3.66 -3 4 C-1.75 2 -1.75 2 0 0 Z " fill="#323F87" transform="translate(82,141)"/>
<path d="M0 0 C0.66 0.33 1.32 0.66 2 1 C0.375 6.75 0.375 6.75 -3 9 C-3 5.30581799 -1.71820705 3.22163822 0 0 Z " fill="#333C7C" transform="translate(76,130)"/>
<path d="M0 0 C0.33 0.66 0.66 1.32 1 2 C0.3507041 3.34187818 -0.31731862 4.67479497 -1 6 C-1 6.99 -1 7.98 -1 9 C-2.5625 7.75 -2.5625 7.75 -4 6 C-3.875 3.9375 -3.875 3.9375 -3 2 C-2.01 1.34 -1.02 0.68 0 0 Z " fill="#6E85CA" transform="translate(441,88)"/>
<path d="M0 0 C2.31 0.33 4.62 0.66 7 1 C7 1.99 7 2.98 7 4 C4.69 3.67 2.38 3.34 0 3 C0 2.01 0 1.02 0 0 Z " fill="#313D77" transform="translate(15,68)"/>
<path d="M0 0 C3.3 0.33 6.6 0.66 10 1 C10.33 2.32 10.66 3.64 11 5 C10.29875 4.71125 9.5975 4.4225 8.875 4.125 C5.94547497 2.97866412 2.99078347 1.97374346 0 1 C0 0.67 0 0.34 0 0 Z " fill="#515A97" transform="translate(646,54)"/>
<path d="M0 0 C3.96 1.98 3.96 1.98 8 4 C5 6 5 6 3 6 C0 2.53846154 0 2.53846154 0 0 Z " fill="#434D8F" transform="translate(730,149)"/>
<path d="M0 0 C2.31 0 4.62 0 7 0 C7 0.66 7 1.32 7 2 C7.99 2.33 8.98 2.66 10 3 C8.5199159 2.88637738 7.04089926 2.75877092 5.5625 2.625 C4.73878906 2.55539063 3.91507813 2.48578125 3.06640625 2.4140625 C2.38449219 2.27742187 1.70257812 2.14078125 1 2 C0.67 1.34 0.34 0.68 0 0 Z " fill="#636B9F" transform="translate(752,153)"/>
<path d="M0 0 C0.99 0 1.98 0 3 0 C3 0.99 3 1.98 3 3 C4.32 3.66 5.64 4.32 7 5 C5 6 5 6 1.875 5.0625 C0.92625 4.711875 -0.0225 4.36125 -1 4 C-0.67 2.68 -0.34 1.36 0 0 Z " fill="#6D82C9" transform="translate(355,146)"/>
<path d="M0 0 C2 1 2 1 2.8125 3.3125 C3 6 3 6 1.5625 8.3125 C1.046875 8.869375 0.53125 9.42625 0 10 C-0.66 9.67 -1.32 9.34 -2 9 C-1.67 8.443125 -1.34 7.88625 -1 7.3125 C0.1309601 4.69715478 0.15662974 2.8193354 0 0 Z " fill="#7B92D5" transform="translate(321,132)"/>
<path d="M0 0 C0.99 0.66 1.98 1.32 3 2 C0.03 4.475 0.03 4.475 -3 7 C-2.67 5.35 -2.34 3.7 -2 2 C-1.34 2 -0.68 2 0 2 C0 1.34 0 0.68 0 0 Z " fill="#37417F" transform="translate(684,118)"/>
<path d="M0 0 C1.32 0.33 2.64 0.66 4 1 C0.25 6.875 0.25 6.875 -2 8 C-1.67 6.68 -1.34 5.36 -1 4 C-0.34 4 0.32 4 1 4 C0.67 2.68 0.34 1.36 0 0 Z " fill="#3E4989" transform="translate(710,80)"/>
<path d="M0 0 C0.99 0.66 1.98 1.32 3 2 C1.35 3.65 -0.3 5.3 -2 7 C-2.33 5.35 -2.66 3.7 -3 2 C-2.01 1.34 -1.02 0.68 0 0 Z " fill="#3A4391" transform="translate(580,69)"/>
<path d="M0 0 C2.475 0.495 2.475 0.495 5 1 C5.33 2.65 5.66 4.3 6 6 C3.97945196 4.35830472 1.97956942 2.69088222 0 1 C0 0.67 0 0.34 0 0 Z " fill="#4F5795" transform="translate(674,71)"/>
<path d="M0 0 C-1.28524261 0.86380259 -2.57842419 1.71580369 -3.875 2.5625 C-4.59429688 3.03816406 -5.31359375 3.51382813 -6.0546875 4.00390625 C-6.69664062 4.33261719 -7.33859375 4.66132812 -8 5 C-8.66 4.67 -9.32 4.34 -10 4 C-4.4 -2.2 -4.4 -2.2 0 0 Z " fill="#5A65A3" transform="translate(600,58)"/>
<path d="M0 0 C0.33 0.99 0.66 1.98 1 3 C1.99 2.67 2.98 2.34 4 2 C4.99 3.485 4.99 3.485 6 5 C5.01 5.33 4.02 5.66 3 6 C1.35 4.35 -0.3 2.7 -2 1 C-1.34 0.67 -0.68 0.34 0 0 Z " fill="#D6DCED" transform="translate(33,141)"/>
<path d="M0 0 C0.66 1.32 1.32 2.64 2 4 C1 5 1 5 -1.5625 5.0625 C-2.7690625 5.0315625 -2.7690625 5.0315625 -4 5 C-2.68 3.35 -1.36 1.7 0 0 Z " fill="#50599B" transform="translate(686,130)"/>
<path d="M0 0 C0.66 0.33 1.32 0.66 2 1 C1.67 2.98 1.34 4.96 1 7 C-0.32 6.67 -1.64 6.34 -3 6 C-2.01 4.02 -1.02 2.04 0 0 Z " fill="#7990D4" transform="translate(442,88)"/>
<path d="M0 0 C0.33 0 0.66 0 1 0 C1.33 2.31 1.66 4.62 2 7 C0.68 7.33 -0.64 7.66 -2 8 C-1.34 5.36 -0.68 2.72 0 0 Z " fill="#374A98" transform="translate(339,84)"/>
<path d="M0 0 C2.31 0.33 4.62 0.66 7 1 C7 2.65 7 4.3 7 6 C5.83054208 5.19152271 4.66449539 4.37810888 3.5 3.5625 C2.8503125 3.11003906 2.200625 2.65757813 1.53125 2.19140625 C1.0259375 1.79824219 0.520625 1.40507813 0 1 C0 0.67 0 0.34 0 0 Z " fill="#545E9C" transform="translate(807,61)"/>
<path d="M0 0 C0.99 0 1.98 0 3 0 C3 1.98 3 3.96 3 6 C1.35 6 -0.3 6 -2 6 C-1.01 5.67 -0.02 5.34 1 5 C0.67 3.35 0.34 1.7 0 0 Z " fill="#C9D0EF" transform="translate(96,62)"/>
</svg>
